<?xml version="1.0" encoding="UTF-8" standalone="no"?>
<!-- Created with Inkscape (http://www.inkscape.org/) -->

<svg
   version="1.1"
   id="svg1"
   width="2280"
   height="2280"
   viewBox="0 0 2280 2280"
   xmlns="http://www.w3.org/2000/svg"
   xmlns:svg="http://www.w3.org/2000/svg">
  <defs
     id="defs1" />
  <g
     id="g1">
    <g
       id="g119465"
       style="display:inline">
      <path
         style="display:inline;fill:#25212c;fill-opacity:1;stroke-width:139.005;stroke-linecap:round;stroke-linejoin:round;stroke-dasharray:1668.06, 1668.06"
         id="path119468"
         d="M 626.42422,1195.2727 A 276.36365,214.18181 0 0 1 352.31746,1409.4474 276.36365,214.18181 0 0 1 73.733791,1198.7708 276.36365,214.18181 0 0 1 343.29052,981.15517 276.36365,214.18181 0 0 1 626.27679,1188.2775 l -276.21621,6.9952 z" />
      <path
         style="display:inline;fill:#25212c;fill-opacity:1;stroke-width:139.005;stroke-linecap:round;stroke-linejoin:round;stroke-dasharray:1668.06, 1668.06"
         id="path119471"
         d="M 1515.394,1119.2728 A 430.66666,359.27274 0 0 1 1085.4751,1478.545 430.66666,359.27274 0 0 1 654.06324,1120.5205 430.66666,359.27274 0 0 1 1082.4839,760.00497 430.66666,359.27274 0 0 1 1515.3836,1116.7775 l -430.6563,2.4953 z" />
      <path
         style="display:inline;fill:#25212c;fill-opacity:1;stroke-width:139.005;stroke-linecap:round;stroke-linejoin:round;stroke-dasharray:1668.06, 1668.06"
         id="path119473"
         d="m 561.93938,1213.697 a 124.36364,66.78788 0 0 1 -123.34804,66.7857 124.36364,66.78788 0 0 1 -125.36265,-65.6949 124.36364,66.78788 0 0 1 121.30053,-67.8586 124.36364,66.78788 0 0 1 127.34382,64.5865 l -124.2973,2.1813 z" />
      <rect
         style="display:inline;fill:#25212c;fill-opacity:1;stroke-width:139.005;stroke-linecap:round;stroke-linejoin:round;stroke-dasharray:1668.06, 1668.06"
         id="rect119471"
         width="1082.4242"
         height="294.78793"
         x="432.9697"
         y="921.21216"
         ry="0" />
      <path
         style="display:inline;fill:#25212c;fill-opacity:1;stroke-width:139.005;stroke-linecap:round;stroke-linejoin:round;stroke-dasharray:1668.06, 1668.06"
         id="path119474"
         d="M 2049.697,946.54547 A 393.81818,172.72728 0 0 1 1659.0948,1119.267 393.81818,172.72728 0 0 1 1262.1131,949.36648 393.81818,172.72728 0 0 1 1646.2315,773.87003 393.81818,172.72728 0 0 1 2049.4869,940.9042 l -393.6081,5.64127 z" />
      <path
         style="display:inline;fill:#25212c;fill-opacity:1;stroke-width:139.005;stroke-linecap:round;stroke-linejoin:round;stroke-dasharray:1668.06, 1668.06"
         id="path119475"
         d="m 1727.2727,769.2121 a 287.87878,69.090912 0 0 1 -285.5279,69.08861 287.87878,69.090912 0 0 1 -290.1913,-67.96021 287.87878,69.090912 0 0 1 280.7883,-70.19858 287.87878,69.090912 0 0 1 294.7773,66.81367 l -287.7252,2.25651 z" />
      <path
         style="display:inline;fill:#25212c;fill-opacity:1;stroke-width:139.005;stroke-linecap:round;stroke-linejoin:round;stroke-dasharray:1668.06, 1668.06"
         id="path119470"
         d="m 313.21212,1393.3334 a 85.21212,89.818184 0 0 1 -84.51625,89.8152 85.21212,89.818184 0 0 1 -85.89662,-88.3483 85.21212,89.818184 0 0 1 83.11332,-91.2582 85.21212,89.818184 0 0 1 87.25409,86.8578 L 228,1393.3334 Z" />
      <rect
         style="display:inline;fill:#25212c;fill-opacity:1;stroke-width:139.005;stroke-linecap:round;stroke-linejoin:round;stroke-dasharray:1668.06, 1668.06"
         id="rect119475"
         width="391.51514"
         height="119.75758"
         x="1630.5454"
         y="893.57574" />
      <rect
         style="display:inline;fill:#25212c;fill-opacity:1;stroke-width:139.005;stroke-linecap:round;stroke-linejoin:round;stroke-dasharray:1668.06, 1668.06"
         id="rect119476"
         width="575.75757"
         height="267.15152"
         x="1409.4546"
         y="686.30304" />
      <rect
         style="display:inline;fill:#25212c;fill-opacity:1;stroke-width:139.005;stroke-linecap:round;stroke-linejoin:round;stroke-dasharray:1668.06, 1668.06"
         id="rect119477"
         width="469.81818"
         height="133.57576"
         x="1483.1515"
         y="649.45453" />
      <rect
         style="display:inline;fill:#25212c;fill-opacity:1;stroke-width:139.005;stroke-linecap:round;stroke-linejoin:round;stroke-dasharray:1668.06, 1668.06"
         id="rect119478"
         width="69.090912"
         height="184.24243"
         x="1948.3636"
         y="750.7879" />
      <rect
         style="display:inline;fill:#25212c;fill-opacity:1;stroke-width:139.005;stroke-linecap:round;stroke-linejoin:round;stroke-dasharray:1668.06, 1668.06"
         id="rect119479"
         width="198.06061"
         height="165.81818"
         x="1731.8788"
         y="603.39392" />
      <rect
         style="display:inline;fill:#25212c;fill-opacity:1;stroke-width:139.005;stroke-linecap:round;stroke-linejoin:round;stroke-dasharray:1668.06, 1668.06"
         id="rect119480"
         width="147.39394"
         height="87.515152"
         x="1681.2122"
         y="635.63635" />
      <rect
         style="display:inline;fill:#25212c;fill-opacity:1;stroke-width:139.005;stroke-linecap:round;stroke-linejoin:round;stroke-dasharray:1668.06, 1668.06"
         id="rect119481"
         width="244.12122"
         height="36.848484"
         x="1630.5454"
         y="631.03027" />
      <rect
         style="display:inline;fill:#25212c;fill-opacity:1;stroke-width:139.005;stroke-linecap:round;stroke-linejoin:round;stroke-dasharray:1668.06, 1668.06"
         id="rect119482"
         width="317.81818"
         height="87.515152"
         x="1211.3939"
         y="824.48486" />
      <rect
         style="display:inline;fill:#25212c;fill-opacity:1;stroke-width:139.005;stroke-linecap:round;stroke-linejoin:round;stroke-dasharray:1668.06, 1668.06"
         id="rect119483"
         width="175.0303"
         height="152"
         x="175.0303"
         y="1358.7878" />
      <path
         style="fill:#8765d0"
         d="m 222.26609,1951.7501 -0.5567,-2.25 0.868,-14 c 1.1351,-18.3072 2.7483,-39.1677 4.5638,-59.0144 0.8057,-8.808 1.4649,-20.3955 1.4649,-25.75 v -9.7356 l -1.25,0.01 c -0.6875,0.01 -8,2.7481 -16.25,6.0954 -8.25,3.3473 -24.225,9.8154 -35.5,14.3736 -11.275,4.5582 -26.6815,10.8153 -34.2365,13.9046 l -13.7365,5.6164 h -2.5135 -2.5135 l 0.029,-1.75 0.029,-1.75 7.2214,-8.594 c 3.9717,-4.7267 13.9957,-16.6517 22.2754,-26.5 8.2798,-9.8483 20.7673,-24.7072 27.75,-33.0197 6.9828,-8.3125 12.696,-15.6361 12.696,-16.2747 v -1.1611 l -2.4071,-0.9152 c -1.3239,-0.5033 -10.8864,-2.9601 -21.25,-5.4595 -10.3636,-2.4995 -21.0929,-5.2205 -23.8429,-6.0468 -2.75,-0.8263 -17.5726,-4.5761 -32.9391,-8.3329 l -27.939099,-6.8306 -0.3747,-1.1241 -0.3747,-1.1241 2.9586,-1.5299 c 1.6273,-0.8415 7.8435,-2.6939 13.813799,-4.1164 5.9703,-1.4225 13.1052,-3.2249 15.8552,-4.0052 2.75,-0.7803 17.15,-4.3716 32,-7.9805 25.147,-6.1115 35.3367,-8.674 41.5,-10.4362 l 2.5,-0.7148 0.2535,-1.4172 0.2536,-1.4171 -7.2536,-8.6335 c -3.9894,-4.7484 -16.2535,-19.3301 -27.2535,-32.4036 -11,-13.0736 -23.5071,-28.0458 -27.7935,-33.2716 l -7.7934,-9.5016 0.329,-1.5948 0.3289,-1.5949 2.7363,0.2913 c 1.505,0.1602 8.5708,2.7477 15.7019,5.75 13.0079,5.4765 14.9912,6.0995 14.9903,4.7087 0,-1.7993 -4.3596,-11.7135 -10.4361,-23.7398 l -6.5634,-12.9899 -0.01,-2.5101 -0.01,-2.5102 -1.9869,-3 -1.9868,-3 -0.01,-8.0557 -0.01,-8.0557 -2.558,-3.4443 -2.5581,-3.4443 0.6298,-5.5222 0.6298,-5.5222 -3.0717,-3.8653 -3.0718,-3.8653 v -8.4548 -8.4547 l -2,-2.5426 -2,-2.5426 v -6.4574 -6.4574 l -2,-2.5426 -2,-2.5426 v -8.9639 -8.964 l -3,-2.8024 -3,-2.8024 v -6.6911 -6.691 l -2,-2.5426 -2,-2.5426 -0.01,-9.1152 -0.01,-9.1151 -1.9868,-3 -1.9868,-3 -0.01,-5.3556 -0.01,-5.3557 -2.4602,-2.9238 -2.460199,-2.9238 -0.6464,-3.4454 -0.6464,-3.4455 1.1066,-3.1743 c 0.6111,-1.7459 1.1091,-4.0517 1.1091,-5.1239 v -1.9496 l -3,-2.8024 -3,-2.8024 -0.01,-7.3488 -0.01,-7.3488 -1.9869,-3 -1.9868,-3 -0.013,-8 -0.013,-8 -1.9868,-3 -1.9868,-3 -0.01,-5.8488 -0.01,-5.8488 -3,-2.8024 -3,-2.8024 v -6.6911 -6.691 l -2,-2.5426 -2,-2.5426 -0.01,-9.1152 -0.01,-9.1151 -1.9868,-3 -1.9869,-3 -0.01,-8.1126 -0.01,-8.1125 -3,-3.775 -3,-3.775 -0.01,-6.1125 -0.01,-6.1125 -1.9868,-3 -1.9868,-3 -0.013,-8 -0.013,-8 -1.9868,-3 -1.9868,-3 -0.01,-6.2905 -0.01,-6.2905 -1.9043,-2.7095 -1.9042,-2.7095 -0.5058,-8.3164 -0.5057,-8.3163 -2.59,-3.7374 -2.5899,-3.7374 v -38.104 -38.1039 l 2.6008,-5.0131 c 2.7326,-5.2668 3.2679,-8.2933 2.0808,-11.7626 l -0.7156,-2.0912 3.017,-3.7963 3.017,-3.7964 v -3.635 -3.635 l 10.011,-19.9775 10.0111,-19.9775 16.7389,-16.761 16.738899,-16.761 16.1432,-7.989 16.1431,-7.989 h 2.6992 2.6991 l 2.5426,-2 2.5426,-2 h 6.0614 6.0614 l 3.9081,-2.7083 3.9081,-2.7084 4.0566,0.1618 4.0567,0.1618 2.9157,-2.45348 2.9166,-2.4534 h 2.814 2.8141 l 4.3592,-1.9781 4.3592,-1.978 3.3423,-0.022 3.3423,-0.022 2.5426,-2 2.5425,-2 h 6.0614 6.0614 l 3.6622,-2.5379 3.6621,-2.5379 4.9708,-0.7857 4.9708,-0.7858 2.3933,-1.6763 2.3933,-1.6764 h 5.3698 5.3698 l 2.5426,-2 2.5425,-2 h 4.1709 4.1709 l 3.3885,-2.5 3.3886,-2.5 h 2.5557 2.5557 l 4.9195,-2.4958 4.9195,-2.4958 h 5.4228 5.4228 l 2.5426,-2 2.5425,-2 4.1152,-0.01 4.1151,-0.01 3,-1.9868 3,-1.9869 4.1125,-0.01 4.1125,-0.01 3.775,-3 3.775,-3 6.1125,-0.01 6.1125,-0.01 3,-1.9868 3,-1.9868 4.5749,-0.01 4.5748,-0.01 6.9252,-2.3964 c 3.8088,-1.318 9.4782,-3.5853 12.5986,-5.0383 l 5.6734,-2.6418 2.5587,0.6422 2.5587,0.6421 3.0946,-2.6039 3.0946,-2.6039 h 2.814 2.8141 l 4.3592,-1.978 4.3592,-1.9781 5.4213,-0.022 5.4212,-0.022 1.6732,-1.5142 1.6732,-1.5142 5.8481,-1.5232 c 3.2165,-0.8378 7.2771,-2.4064 9.0236,-3.4858 l 3.1755,-1.9595 h 3.2242 3.2243 l 2.5426,-2 2.5425,-2 h 6.7427 6.7427 l 1.3725,-1.6549 c 0.7548,-0.9102 2.7225,-2.2193 4.3727,-2.9091 l 3.0002,-1.2542 2.4998,0.4668 2.4997,0.4667 3.4443,-2.5576 3.4443,-2.5577 h 2.6965 2.6965 l 4.3592,-1.9781 4.3592,-1.978 5.3423,-0.022 5.3423,-0.022 2.5426,-2 2.5425,-2 h 4.0343 4.0343 l 5.3157,-3 5.3157,-3 2.7652,-0.01 2.7651,-0.01 3,-1.9868 3,-1.9868 3,-0.013 3,-0.013 3,-1.9869 3,-1.9868 5.9463,-0.01 5.9462,-0.01 3.6622,-2.5379 3.6621,-2.5378 4.9708,-0.7858 4.9708,-0.7858 2.3933,-1.6763 2.3933,-1.6746 h 3.3698 3.3698 l 2.5426,-2 2.5425,-2 6.1152,-0.01 6.1151,-0.01 3,-1.9868 3,-1.9869 4.1125,-0.01 4.1125,-0.01 3.775,-3 3.775,-3 4.1125,-0.01 4.1125,-0.01 3,-1.9868 3,-1.9868 3,-0.013 3,-0.013 3,-1.9868 3,-1.9868 6.1125,-0.01 6.1125,-0.01 3.8859,-3.0881 3.8858,-3.0881 3.8287,0.6122 3.8286,0.6122 2.9997,-2.5241 2.9998,-2.5241 3.1733,-0.01 3.1732,-0.01 3,-1.9869 3,-1.9868 6.3423,-0.01 6.3423,-0.01 2.5426,-2 2.5425,-1.99998 h 3.0343 3.0343 l 5.3157,-3 5.3157,-3 h 3.1074 3.1075 l 2.5426,-2 2.5425,-2 h 3.8123 3.8122 l 4.8029,-2.57712 4.8029,-2.57711 4.595,0.591 4.5951,0.591 3.7925,-3.01389 3.7924,-3.01388 h 2.7533 2.7533 l 4.3592,-1.97804 4.3592,-1.97804 3,-0.0285 3,-0.0285 3,-1.98682 3,-1.98682 5.882,-0.007 5.882,-0.007 3.118,-1.87832 c 1.7149,-1.03307 4.7254,-2.16342 6.6899,-2.51188 l 3.5718,-0.63358 3.3724,-2.48811 3.3725,-2.48811 4.0557,-0.007 4.0557,-0.007 3,-1.98682 3,-1.98682 6.1125,-0.007 6.1125,-0.007 3.775,-3 3.775,-3 h 2.7533 2.7533 l 4.3592,-1.97804 4.3592,-1.97804 3,-0.0285 3,-0.0285 3,-1.98682 3,-1.98682 4,-0.0132 4,-0.0132 3,-1.98682 3,-1.98682 6.1125,-0.007 6.1125,-0.007 3.775,-3 3.775,-3 3.1125,-0.007 3.1125,-0.007 3,-1.98682 3,-1.98682 4,-0.0132 4,-0.0132 3,-1.98682 3,-1.98682 6.1125,-0.007 6.1125,-0.007 3.775,-3 3.775,-3 3.11251,-0.007 3.1125,-0.007 3,-1.98682 3,-1.98682 4,-0.0132 4,-0.0132 3,-1.98682 3,-1.98682 6.1125,-0.007 6.1125,-0.007 3.775,-3 3.775,-3 4.1125,-0.007 4.1125,-0.007 3,-1.98682 3,-1.98682 3.3423,-0.007 3.3422,-0.007 2.5426,-2 2.5426,-2 h 6.0614 6.0614 l 3.89,-2.69574 3.8899,-2.69575 3.4659,0.0982 3.4658,0.0982 2.4025,-2.4025 2.4025,-2.4025 h 3.9362 3.9363 l 4.3592,-1.97804 4.3592,-1.97804 5.3423,-0.022 5.3422,-0.022 2.5426,-2 2.5426,-2 h 4.0614 4.0614 l 3.666,-2.54051 3.6659,-2.54051 3.8878,-0.61253 3.8878,-0.61253 2.3849,-1.84696 2.3848,-1.84696 6.1152,-0.007 6.1151,-0.007 3,-1.98682 3,-1.98682 4.1125,-0.007 4.1125,-0.007 3.7602,-2.98825 3.7602,-2.98825 2.2029,0.55287 2.2028,0.55288 4.8234,-2.56463 4.8234,-2.56462 5.101,-0.007 5.1011,-0.007 3,-1.98682 3,-1.98682 4,-0.0132 4,-0.0132 3,-1.98682 3,-1.98682 2.9191,-0.007 2.9192,-0.007 5.3157,-3 5.3157,-3 5.7652,-0.007 5.7651,-0.007 3,-1.98682 3,-1.98682 3,-0.0132 3,-0.0132 3,-1.98682 3,-1.98682 2.9462,-0.007 2.9463,-0.007 3.6622,-2.53788 3.6621,-2.53788 4.9708,-0.78577 4.9708,-0.78578 2.3933,-1.67634 2.3933,-1.67635 6.0275,-0.007 6.0275,-0.007 3,-1.98682 3,-1.98682 4.1125,-0.007 4.1125,-0.007 3.7222,-2.95806 3.7222,-2.95805 2.8141,0.56281 2.8141,0.56282 3.0379,-2.24604 3.038,-2.24604 6.8132,-0.62548 6.8133,-0.62547 2.4725,-1.73325 2.4725,-1.71335 h 4.0832 4.0832 l 3.3886,-2.5 3.3886,-2.5 h 3.4113 3.4114 l 2.9711,-2.5 2.9711,-2.5 4.1732,-0.007 4.1733,-0.007 3,-1.98682 3,-1.98682 6.0275,-0.007 6.0275,-0.007 2.4081,-1.6867 c 1.3244,-0.92769 4.2371,-2.01815 6.4725,-2.42324 5.1004,-0.92428 20.0341,-6.40524 22.8765,-8.39612 l 2.1329,-1.4923 6.0275,-0.007 6.0275,-0.007 3,-1.98682 3,-1.98682 3.6276,-0.007 3.6275,-0.007 1.3725,-1.6549 c 0.7548,-0.9102 2.7225,-2.21928 4.3727,-2.90907 l 3.0002,-1.25417 2.7229,0.52052 2.723,0.52052 3.1035,-2.61145 3.1036,-2.61145 4.1732,-0.007 4.1733,-0.007 3,-1.98682 3,-1.98682 6,-0.0132 6,-0.0132 3,-1.98682 3,-1.98682 2.9462,-0.007 2.9463,-0.007 3.6622,-2.53788 3.6621,-2.53788 4.9708,-0.78577 4.9708,-0.78578 2.3933,-1.67634 2.3933,-1.67303 h 3.3698 3.3697 l 2.5426,-2 2.5426,-2 h 4.4708 4.4708 l 2.9238,-2.46021 2.9238,-2.46021 3.5305,-0.66233 3.5305,-0.66233 -0.6061,-1.57945 c -1.1491,-2.99463 -12.0373,-17.48757 -21.0865,-28.06781 -21.8486,-25.54491 -43.3787,-38.40241 -71.4273,-42.65539 l -9.5,-1.44048 -10.5,0.004 -10.5,0.004 -13,1.46093 c -21.374,2.40199 -40.1839,5.99225 -75.8137,14.47068 -7.0476,1.67649 -13.7226,3.0486 -14.8333,3.0486 h -2.0197 l 0.4064,-1.25 0.4064,-1.25 16.927,-10.32619 c 25.4963,-15.55388 46.5042,-29.77338 60.5032,-40.95242 l 12.5763,-10.04292 8.2738,-8.83924 8.2737,-8.83923 5.4933,-8.25174 5.4933,-8.25174 3.264,-7.74826 c 3.9816,-9.45195 6.2505,-18.26489 7.7022,-29.91716 l 1.1002,-8.8311 -0.6154,-15 -0.6153,-15 -2.4453,-15.5 c -2.9553,-18.73208 -5.35,-30.5829 -11.161,-55.23334 -2.4288,-10.30334 -4.4161,-19.64084 -4.4161,-20.75 v -2.01666 h 0.864 c 1.0593,0 3.3483,3.43867 14.6447,22 20.4727,33.63899 36.0342,55.20786 51.4258,71.27831 l 9.4344,9.85058 7.9508,5.9911 c 13.9865,10.53911 27.9297,16.46054 45.7935,19.44757 l 10.1382,1.69523 17.6243,-0.54085 17.6243,-0.54086 10.6969,-1.58145 c 16.0777,-2.37699 34.9721,-6.17719 58.0035,-11.66618 11.3852,-2.7134 21.4352,-4.93345 22.3333,-4.93345 h 1.633 l -0.4078,1.25 c -0.2242,0.6875 -8.0779,5.98402 -17.4525,11.77004 -38.707,23.89002 -59.0977,38.41197 -75.0693,53.46311 l -9.2629,8.7291 -6.5427,8.64387 -6.5426,8.64388 -4.4568,9.07138 -4.4567,9.07138 -2.6051,9.92862 -2.6051,9.92862 -0.4956,17 -0.4956,17 1.6595,13.5 c 0.9128,7.425 2.2011,16.2 2.863,19.5 l 1.2035,6 3.2763,0.31532 3.2763,0.31532 3.3417,-2.06532 3.3418,-2.06532 h 6.2499 6.25 l 3.4168,-3 3.4168,-3 4.2152,-0.007 4.2152,-0.007 3,-1.98682 3,-1.98682 8,-0.0132 8,-0.0132 3,-1.98682 3,-1.98682 11.9191,-0.007 11.9192,-0.007 5.3157,-3 5.3157,-3 h 19.3776 19.3777 l 3.775,3 3.775,3 15.1125,0.007 15.1125,0.007 3,1.98682 3,1.98682 9.1151,0.007 9.1152,0.007 2.5426,2 2.5426,2 h 5.1074 5.1074 l 5.3157,3 5.3157,3 h 3.0343 3.0343 l 2.5426,2 c 1.3984,1.1 3.1925,2 3.9869,2 1.3138,0 10.7241,4.60302 31.6878,15.5 4.2324,2.2 9.2381,5.30835 11.1238,6.90744 1.8858,1.5991 5.6786,3.92539 8.4286,5.16955 l 5,2.2621 20.656,20.83045 20.6559,20.83046 2.2292,4.475 c 1.226,2.46126 3.5183,5.6793 5.094,7.15121 l 2.8649,2.67621 v 2.46393 2.46393 l 1.8501,2.38486 c 1.0176,1.31167 6.4176,11.41515 12,22.45217 l 10.1499,20.06732 0.01,3.43268 0.01,3.43269 1.9868,3 1.9868,3 0.01,3.36798 0.01,3.36799 3,3.41681 3,3.41681 0.01,4.21521 0.01,4.2152 1.9868,3 1.9868,3 0.01,3.34227 0.01,3.34227 2,2.54259 2,2.54259 0.01,4.11514 0.01,4.11514 1.9868,3 1.9868,3 0.01,2.91914 0.01,2.91915 3,5.3157 3,5.31571 0.01,2.76515 0.01,2.76515 1.9868,3 1.9868,3 0.013,4 0.013,4 1.9868,3 1.9868,3 0.01,3.62756 0.01,3.62755 1.6549,1.37245 c 2.1683,1.79824 4.3434,7.09151 4.3517,10.59032 l 0.01,2.78212 1.9868,3 1.9868,3 0.013,3.99996 0.013,4 1.9868,3 1.9868,3 0.01,2.9463 0.01,2.9462 2.6738,3.8583 2.6737,3.8582 0.1814,4.3536 0.1814,4.3536 2.1448,2.7268 2.1449,2.7268 0.01,4.1151 0.01,4.1151 1.9868,3 1.9868,3 0.01,3.3557 0.01,3.3556 2.5,2.9711 2.5,2.9711 v 3.4638 3.4637 l 2.0255,2.7397 2.0255,2.7396 0.7982,5.0491 0.7981,5.049 1.6764,2.3933 1.6763,2.3934 0.01,4.0275 0.01,4.0274 1.9868,3 1.9868,3 0.01,2.9192 0.01,2.9191 3,5.3157 3,5.3157 0.01,2.7652 0.01,2.7651 1.9868,3 1.9868,3 0.013,4 0.013,4 1.9868,3 1.9868,3 0.01,3.368 0.01,3.368 3,3.4168 3,3.4168 0.01,4.21528 0.01,4.2152 1.9868,3 1.9868,3 0.01,3.3423 0.01,3.3422 2,2.5426 2,2.5426 v 3.7729 3.7728 l 2.7076,5.3423 c 1.4892,2.9383 3.7392,6.6143 5,8.169 l 2.2924,2.8268 v 3.5155 3.5155 l 2,2.5426 2,2.5426 0.01,5.1152 0.01,5.1151 1.9868,3 1.9868,3 0.01,3.1125 0.01,3.1125 3,3.775 3,3.775 0.01,4.1125 0.01,4.1125 1.9868,3 1.9868,3 0.01,3.3423 0.01,3.3422 2,2.5426 2,2.5426 v 5.7729 5.7728 l 2.5724,4.9581 2.5723,4.9582 0.2809,3.5398 0.2809,3.5399 2.1467,2.7291 2.1468,2.7292 v 27.7303 27.7303 l -1.847,2.3848 -1.8469,2.3849 -0.6125,3.8878 -0.6126,3.8878 -2.5405,3.6659 -2.5405,3.666 v 4.1629 4.1628 l -4.5,5.0668 -4.5,5.0668 v 1.6438 1.6439 l -15.25,15.4283 -15.25,15.4282 -4.1398,1.8118 c -2.2769,0.9964 -4.4523,2.3172 -4.8341,2.935 -0.3818,0.6178 -2.5173,2.2741 -4.7454,3.6807 l -4.0513,2.5574 -2.78,-0.556 -2.78,-0.556 -3.7222,2.958 -3.7222,2.9581 -6.1125,0.01 -6.1125,0.01 -3,1.9868 -3,1.9868 -6,0.013 -6,0.013 -3,1.9868 -3,1.9868 -6.1125,0.01 -6.1125,0.01 -3.775,3 -3.775,3.0001 -8.1125,0.01 -8.1125,0.01 -3,1.9868 -3,1.9868 -8,0.013 -8,0.013 -3,1.9868 -3,1.9868 -6.1733,0.01 -6.1732,0.01 -3.1361,2.6388 -3.1361,2.6389 -7.7896,-0.6497 -7.7895,-0.6496 -3.7886,3.0108 -3.7886,3.0108 -8.1125,0.01 -8.1125,0.01 -3,1.9868 -3,1.9868 -9,0.013 -9,0.013 -3,1.9868 -3,1.9868 -7.8676,0.01 -7.8677,0.01 -3.8823,-3.8824 -3.8824,-3.8823 v -4.4828 -4.4828 l -1.831,-2.3848 c -1.0071,-1.3117 -3.3239,-5.3099 -5.1486,-8.885 -1.8247,-3.575 -3.7014,-7.175 -4.1704,-8 -0.469,-0.825 -1.9788,-3.9223 -3.3552,-6.883 l -2.5024,-5.383 -3.4962,-3.8699 -3.4962,-3.8699 v -1.5873 -1.5873 l -9,-9.3196 -9,-9.3196 v -1.5554 -1.5554 l -3.16,-3.599 -3.16,-3.599 -4.59,-2.3516 -4.59,-2.3516 -4.5,-4.6684 -4.5,-4.6684 -4.5,-2.3168 c -2.475,-1.2743 -5.6092,-3.5058 -6.9648,-4.9589 l -2.4648,-2.642 -6.0352,-2.8484 c -13.5309,-6.3859 -21.3427,-10.2893 -27.0352,-13.5091 l -6,-3.3937 -5.7651,-0.081 -5.7652,-0.081 -5.3157,-3 -5.3157,-3 -9.9192,-0.01 -9.9191,-0.01 -3,-1.9868 -3,-1.9868 -15.868,-0.01 -15.868,-0.01 -3.4168,3 -3.4168,3 -9.2152,0.01 -9.2152,0.01 -3,1.9868 -3,1.9868 -5.3423,0.01 -5.3422,0.01 -2.5426,2 -2.5426,2 h -3.7105 -3.7105 l -15.7744,7.9199 -15.7743,7.9198 -3.1648,3.0674 -3.1647,3.0674 -4.5762,1.5593 -4.5763,1.5593 -1.0186,2.2034 c -0.5602,1.2119 -3.7886,4.6785 -7.1742,7.7035 -5.8239,5.2036 -11.4725,10.7365 -21.4391,21 -2.4034,2.475 -5.1071,5.0802 -6.0083,5.7894 l -1.6384,1.2895 v 2.5034 2.5034 l -4.3102,4.7071 -4.3101,4.7072 -4.6417,9.5 c -2.553,5.225 -5.3507,11.075 -6.2172,13 -0.8665,1.9251 -3.1015,6.2001 -4.9667,9.5001 l -3.3914,6 -0.081,4.1151 -0.081,4.1152 -2,2.5426 -2,2.5426 v 8.4547 8.4548 l -3,3.775 -3,3.775 v 29.3277 29.3277 l -3.2344,3.6838 -3.2344,3.6837 -3.2335,1.3511 -3.2335,1.351 h -4.4229 -4.4229 l -4.3592,1.978 -4.3592,1.9781 -5,0.028 -5,0.029 -3,1.9868 -3,1.9868 -6,0.013 -6,0.013 -3,1.9868 -3,1.9868 -8.6276,0.01 -8.6275,0.01 -1.3725,1.6549 c -0.7548,0.9102 -2.8204,2.2602 -4.5903,3 l -3.2179,1.3451 -4.7821,0.01 -4.7821,0.01 -3,1.9868 -3,1.9868 -8,0.013 -8,0.013 -3,1.9868 -3,1.9868 -6.1125,0.01 -6.1125,0.01 -3.775,3 -3.775,3 -6.1125,0.01 -6.1125,0.01 -3,1.9868 -3,1.9868 -8,0.013 -8,0.013 -3,1.9868 -3,1.9868 -6.1125,0.01 -6.1125,0.01 -3.821,3.0366 -3.821,3.0365 -1.5665,-0.6756 c -0.8616,-0.3715 -4.0415,-0.8818 -7.0665,-1.1338 l -5.5,-0.4582 -3.8875,3.0972 -3.8875,3.0973 -6.1125,0.01 -6.1125,0.01 -3,1.9868 -3,1.9868 -6,0.013 -6,0.013 -3,1.9868 -3,1.9868 -8.1125,0.01 -8.1125,0.01 -3.775,3 -3.775,3 h -5.7533 -5.7533 l -4.3592,1.978 -4.3592,1.9781 -7.3423,0.022 -7.3422,0.022 -2.5426,2 -2.5426,2 h -6.2277 -6.2276 l -3.775,3 c -4.2622,3.3872 -4.3901,3.4128 -9.4556,1.8952 l -3.6876,-1.1049 -7.754,3.1049 -7.7539,3.1048 h -5.0167 -5.0167 l -2.5426,2 -2.5426,2 h -6.0614 -6.0614 l -3.7936,2.6289 -3.7935,2.629 -9.0243,0.2982 -9.0243,0.2982 -3.3539,2.0728 -3.354,2.0729 h -5.2242 -5.2242 l -2.5426,2 -2.5426,2 -9.1152,0.01 -9.1151,0.01 -3,1.9868 -3,1.9868 -4.9462,0.01 -4.9463,0.01 -3.9753,2.75 -3.97521,2.75 h -9.1021 -9.1021 l -2.8612,2.25 -2.8613,2.25 -6.1151,0.01 -6.1152,0.01 -3,1.9868 -3,1.9868 -5.3556,0.01 -5.3557,0.01 -2.9238,2.4602 -2.9237,2.4602 -3.5049,0.6575 c -1.9276,0.3617 -6.3018,0.4474 -9.7205,0.1906 l -6.2158,-0.4668 -2.8267,2.3491 -2.8267,2.3492 -6.1733,0.01 -6.1733,0.01 -3,1.9868 -3,1.9868 -7.6275,0.01 -7.6276,0.01 -1.1994,1.4452 c -0.6597,0.7949 -3.4263,2.1849 -6.1481,3.0889 l -4.9487,1.6437 -3.1235,-1.0889 c -1.8637,-0.726 -3.3653,-1.216 -3.4826,-1.216 -0.1173,0 -1.912,1.35 -3.9883,3 l -3.775,3 -8.1125,0.01 -8.1125,0.01 -3,1.9868 -3,1.9868 -6,0.013 -6,0.013 -3,1.9868 -3,1.9868 -8.1125,0.01 -8.1125,0.01 -3.775,3 -3.775,3 -6.1125,0.01 -6.1125,0.01 -3,1.9868 -3,1.9868 -6,0.013 -6,0.013 -3,1.9868 -3,1.9868 -8.6275,0.01 -8.6276,0.01 -1.3724,1.6549 c -0.7549,0.9102 -2.8205,2.2602 -4.5904,3 l -3.2178,1.3451 -4.7822,0.01 -4.7821,0.01 -3,1.9868 -3,1.9868 -8,0.013 -8,0.013 -3,1.9868 -3,1.9868 -9.8269,0.01 -9.8269,0.01 -2.9151,-2.9151 -2.915,-2.915 0.5685,-2.8426 0.5685,-2.8425 -6.0525,-11.4924 c -5.7088,-10.8399 -9.5318,-18.5229 -16.1681,-32.4924 l -2.8503,-6 -18.7911,-18.6511 -18.7911,-18.6908 -15.3208,-7.5988 -15.3209,-7.5989 h -4.4613 -4.4612 l -3.2179,-1.3451 c -1.7698,-0.7398 -3.8355,-2.0898 -4.5903,-3 l -1.3725,-1.6549 h -21.7877 -21.7878 l -6.3398,2.9992 -6.3398,2.9992 -5,0.082 -5,0.082 -6,3.3887 c -9.6864,5.4711 -19.8379,10.4489 -21.3083,10.4489 h -1.3648 l -6.1634,5.8784 -6.1635,5.8784 -4.0068,2.0179 -4.0069,2.0178 -5.2431,5.5439 -5.2432,5.5439 v 1.5265 1.5264 l -4.5,5.0668 -4.5,5.0668 v 1.4865 c 0,1.7443 -4.0695,8.4296 -6.2156,10.2107 -0.8182,0.6791 -2.9781,4.4975 -4.7997,8.4853 -1.8217,3.9879 -4.3634,8.5227 -5.6484,10.0774 l -2.3363,2.8268 -0.01,4.1732 -0.01,4.1733 -1.9868,3 -1.9868,3 -0.01,6.1151 -0.01,6.1152 -2.1026,2.673 -2.1026,2.6729 0.1477,22.3316 0.1477,22.3315 -2.634,3.1304 c -1.4487,1.7217 -3.2199,3.1303 -3.9359,3.1303 -0.7161,0 -3.2635,0.8901 -5.6611,1.978 l -4.3592,1.9781 -6,0.028 -6,0.029 -3,1.9868 -3,1.9868 -5.1392,0.01 -5.1392,0.01 -2.0133,1.75 -2.0132,1.75 -0.6169,3.6115 -0.6169,3.6115 1.326,1.1005 1.326,1.1005 30.9434,-12.5178 c 17.0188,-6.8848 34.3183,-13.8131 38.4433,-15.3963 13.2077,-5.0691 21.2183,-8.746 22.1056,-10.1465 l 0.8638,-1.3634 0.015,-14.368 0.015,-14.368 3.0928,-3.5226 3.0929,-3.5225 -0.4831,-3.1095 -0.4831,-3.1094 2.0441,-2.2283 2.0441,-2.2282 0.6079,-3.7399 0.6079,-3.7398 3.3797,-2.2776 3.3796,-2.2775 1.3586,-2.6187 c 0.7472,-1.4402 1.3586,-3.2931 1.3586,-4.1175 v -1.499 l 12.6878,-12.8867 12.6894,-12.8935 h 1.6774 c 0.9225,0 2.8215,-0.9 4.2199,-2 l 2.5426,-2 h 2.4574 2.4574 l 2.731,-2.1482 2.7311,-2.1483 8.1538,-2.8384 8.1538,-2.8383 19.2814,-0.013 19.2814,-0.013 0.5971,1.5561 0.5972,1.5561 10.8548,5.4439 c 5.9701,2.9941 11.3866,5.4439 12.0365,5.4439 0.65,0 3.9845,2.5875 7.4101,5.75 3.4255,3.1625 7.8419,7.1 9.8141,8.75 1.9723,1.65 3.5953,3.4928 3.6067,4.095 0.011,0.6023 0.9207,1.9095 2.0207,2.905 l 2,1.81 v 1.7101 c 0,0.9406 0.9,2.8543 2,4.2528 1.1,1.3984 2,3.0441 2,3.657 0,1.6214 7.7615,16.8047 8.9732,17.5535 l 1.0268,0.6338 v 4.286 4.286 l 2,1.81 2,1.81 v 31.69 31.69 l -2,1.81 -2,1.81 v 1.8946 c 0,2.3668 -2.3604,7.0197 -4.434,8.7407 l -1.566,1.2996 v 2.2226 2.2225 l -2,1.81 -2,1.81 v 1.8848 c 0,1.0367 -0.9,3.649 -2,5.8052 -1.1,2.1562 -2,4.5372 -2,5.2912 v 1.3708 l -7.75,7.2706 c -4.2625,3.9989 -8.065,7.5624 -8.45,7.919 -0.385,0.3566 -1.5987,1.6372 -2.6972,2.8457 l -1.9973,2.1972 -4.0105,1.0799 c -2.2058,0.594 -4.289,1.5305 -4.6293,2.0812 -0.3404,0.5507 -4.5999,3.0007 -9.4657,5.4444 -4.8657,2.4437 -9.1328,4.9059 -9.4824,5.4716 l -0.6356,1.0284 h -22.7539 -22.7539 l -2.8742,-3 -2.8742,-3 h -1.6129 c -0.8871,0 -2.1012,0.4883 -2.698,1.0851 l -1.0851,1.0851 -2.9937,-1.5481 c -1.6465,-0.8515 -3.2591,-2.2398 -3.5835,-3.0851 l -0.5898,-1.537 h -2.7939 -2.7939 l -14.6465,-14.75 -14.6465,-14.75 -3.091,-6.2215 c -1.7,-3.4218 -3.091,-7.0646 -3.091,-8.095 v -1.8735 l -2,-1.81 -2,-1.81 v -2.19 -2.19 l -2,-1.81 -2,-1.81 v -4.6569 -4.657 l -3,-2.218 -3,-2.218 v -2.911 -2.9111 l -1.0677,-0.6599 -1.0677,-0.6598 -3.2872,3.8508 c -1.8079,2.118 -9.3355,11.0509 -16.7279,19.8509 -7.3925,8.8 -18.5059,22.0137 -24.6966,29.3638 l -11.2557,13.3638 0.3014,1.5533 0.3014,1.5534 2.5,0.7148 c 6.2528,1.7878 16.5471,4.3855 43.5,10.9767 15.95,3.9005 30.125,7.4785 31.5,7.9512 1.375,0.4727 7,1.8598 12.5,3.0825 5.5,1.2227 11.7094,2.8921 13.7987,3.7098 l 3.7987,1.4868 -0.3098,1.6085 -0.3098,1.6084 -22.9889,5.7994 c -12.6439,3.1897 -25.6889,6.417 -28.9889,7.1718 -11.8977,2.7211 -53.5437,13.4648 -54.5106,14.0624 -1.8806,1.1622 -0.9678,3.1189 4.4518,9.5434 60.0069,71.1326 64.5588,76.6766 64.5588,78.6284 v 1.3216 h -2.7547 -2.7547 l -14.4953,-6.0644 c -7.9724,-3.3355 -16.0703,-6.6492 -17.9953,-7.3638 -1.925,-0.7147 -15.425,-6.1481 -30,-12.0744 -14.575,-5.9262 -28.7029,-11.6355 -31.3954,-12.6874 l -4.8954,-1.9124 -1.3448,0.5161 -1.3448,0.516 0.5095,7.7852 c 1.4005,21.4026 3.6677,52.7346 5.0134,69.2851 0.8274,10.175 1.6061,21.7401 1.7306,25.7003 l 0.2263,7.2004 -1.2568,1.2568 -1.2569,1.2568 -1.3944,-1.4572 c -0.7669,-0.8014 -8.2493,-12.4821 -16.6276,-25.9571 -8.3783,-13.475 -16.8601,-27.0652 -18.8484,-30.2004 -1.9884,-3.1352 -5.8653,-9.3442 -8.6153,-13.7977 -2.75,-4.4535 -7.122,-11.4508 -9.7157,-15.5496 l -4.7157,-7.4523 -1.2843,0.02 -1.2843,0.02 -5.1241,8.2304 c -2.8183,4.5267 -12.6561,20.3804 -21.8618,35.2304 -9.2056,14.85 -18.3748,29.5759 -20.3758,32.7242 -2.0011,3.1483 -5.3538,8.4358 -7.4505,11.75 l -3.8121,6.025 h -1.3294 -1.3295 z m 11.3287,-15.5 c 32.0292,-51.7286 49.7036,-79.5715 50.774,-79.9854 l 1.2627,-0.4884 1.5492,1.2858 c 1.9771,1.6408 4.702,5.8459 23.9354,36.938 8.6759,14.025 17.207,27.75 18.9581,30.5 1.751,2.75 5.8078,9.1818 9.0149,14.2929 l 5.8312,9.2928 0.7636,-0.7928 0.7636,-0.7929 -0.8967,-12 c -1.5403,-20.6119 -2.9066,-39.4467 -3.9536,-54.5 -0.5547,-7.975 -1.4567,-20.0763 -2.0045,-26.8919 l -0.996,-12.3919 1.1271,-1.3581 1.1272,-1.3581 h 1.947 c 1.0709,0 5.4033,1.3986 9.6276,3.108 15.3799,6.2236 24.7239,10.0533 26.6805,10.9353 1.1,0.4958 4.475,1.8264 7.5,2.9567 3.025,1.1303 6.4,2.4841 7.5,3.0083 1.1,0.5243 6.95,2.9409 13,5.3703 6.05,2.4294 15.4255,6.2238 20.8346,8.4321 5.409,2.2082 10.9215,4.2878 12.25,4.6212 l 2.4154,0.6062 v -0.9526 c 0,-1.0843 -9.2943,-12.6224 -25.4429,-31.5855 -6.0889,-7.15 -13.0926,-15.4737 -15.5639,-18.4971 -2.4713,-3.0234 -5.6802,-6.8484 -7.1309,-8.5 -8.9787,-10.2223 -17.2219,-20.4009 -18.5272,-22.8772 l -1.5151,-2.8743 1.34,-1.1767 c 1.6221,-1.4245 6.8767,-3.2434 12.8924,-4.4628 5.4508,-1.1049 28.3252,-6.7763 32.4476,-8.0448 1.65,-0.5078 9.75,-2.5502 18,-4.5386 17.2278,-4.1522 24.2221,-5.9489 33.8813,-8.7035 l 6.8813,-1.9623 -0.9152,-0.9153 c -0.8184,-0.8184 -19.7449,-6.0134 -34.3474,-9.4278 -3.025,-0.7073 -9.325,-2.2863 -14,-3.5088 -4.675,-1.2226 -10.525,-2.642 -13,-3.1542 -2.475,-0.5123 -12.7803,-3.0588 -22.9006,-5.6591 l -18.4005,-4.7277 -1.041,-1.6502 -1.0409,-1.6503 2.4415,-3.4845 c 1.3428,-1.9165 6.9634,-8.8171 12.4901,-15.3346 24.2687,-28.6196 36.2247,-42.8205 39.9514,-47.4528 2.2,-2.7346 5.2464,-5.7801 6.7698,-6.7677 1.5234,-0.9876 4.7859,-4.1576 7.25,-7.0443 l 4.4802,-5.2487 v -1.5268 -1.5267 l -2.75,0.6716 c -1.5125,0.3693 -4.325,1.7338 -6.25,3.0321 -3.739,2.5218 -11.1597,5.851 -28,12.562 -5.775,2.3013 -15.225,6.1101 -21,8.4638 -50.1134,20.425 -47.7978,19.6408 -50.0346,16.9457 l -1.2795,-1.5417 1.6291,-7.2083 1.629,-7.2084 1.9972,-27 c 1.0984,-14.85 2.2367,-31.05 2.5295,-36 0.2928,-4.95 0.9803,-14.3298 1.5279,-20.8439 l 0.9956,-11.844 -0.8784,-1.5695 -0.8783,-1.5696 -3.5556,5.4135 c -1.9556,2.9774 -15.0184,23.8635 -29.0284,46.4135 -14.0099,22.55 -26.1082,41.8636 -26.8849,42.9192 l -1.4122,1.9191 -1.0348,-0.6395 c -1.1414,-0.7054 -7.045,-10.025 -37.8172,-59.6988 -11.414,-18.425 -21.3554,-34.1424 -22.0919,-34.9275 l -1.339,-1.4276 -0.665,1.7327 -0.6649,1.7328 1.6618,22.6948 c 1.7643,24.0942 2.9974,39.8124 4.526,57.6948 0.5172,6.05 1.0817,15.2684 1.2545,20.4854 l 0.3141,9.4854 -1.5816,0.3055 -1.5815,0.3055 -18.4185,-7.4402 c -10.1301,-4.0921 -23.5253,-9.5105 -29.7669,-12.0409 -6.2417,-2.5304 -12.0917,-4.6029 -13,-4.6056 -1.9867,-0.01 -14.0056,-4.3275 -27.5678,-9.9124 -5.454,-2.2459 -10.1417,-3.8581 -10.4171,-3.5827 -0.7341,0.7342 0.2231,1.9067 51.5834,63.1866 l 16.25,19.3884 v 2.3651 2.3651 l -6.75,2.0137 c -3.7125,1.1076 -10.8,2.9682 -15.75,4.1346 -4.95,1.1665 -10.3736,2.5512 -12.0525,3.077 -1.6789,0.5259 -5.0539,1.3628 -7.5,1.8599 -2.4461,0.4971 -8.2725,1.9027 -12.9475,3.1235 -4.675,1.2209 -10.975,2.7984 -14,3.5057 -12.5212,2.9277 -33.188199,8.4864 -34.701999,9.3335 l -1.6256,0.9097 5.4138,1.4668 c 12.069999,3.2702 21.947799,5.8384 31.913799,8.2976 5.775,1.425 13.2,3.2626 16.5,4.0834 3.3,0.8208 8.475,2.0917 11.5,2.8241 3.025,0.7324 9.325,2.3305 14,3.5514 4.675,1.2208 10.5014,2.6264 12.9475,3.1235 6.0335,1.2261 11.273,3.0427 12.9001,4.4727 l 1.3476,1.1844 -1.22,2.2796 c -0.671,1.2538 -11.6275,14.6439 -24.3476,29.7557 -29.177,34.6629 -43.6276,52.1625 -43.6276,52.8329 0,0.9274 6.0604,-0.7717 11.7891,-3.3052 3.0633,-1.3547 7.1765,-3.0562 9.1403,-3.781 1.9638,-0.7248 8.7456,-3.4516 15.0706,-6.0596 6.325,-2.6079 14.875,-6.0445 19,-7.6367 4.125,-1.5923 8.4,-3.3102 9.5,-3.8175 1.1,-0.5074 6.05,-2.5653 11,-4.5731 4.95,-2.0078 12.0956,-4.9581 15.8792,-6.5562 3.7835,-1.5981 7.8909,-2.9056 9.1275,-2.9056 h 2.2484 l 1.205,1.452 1.2051,1.452 -0.5521,1.798 c -0.3036,0.9889 -1.0467,10.766 -1.6512,21.727 -0.6046,10.9609 -1.5317,23.3359 -2.0603,27.5 -0.5286,4.164 -1.3762,15.221 -1.8835,24.571 -0.5073,9.35 -1.2073,20.2625 -1.5556,24.25 l -0.6332,7.25 h 0.9421 c 0.5181,0 4.2159,-5.2875 8.2173,-11.75 z m -11.4887,-503.79 c 2.2,-0.3834 4.45,-1.0126 5,-1.3984 0.55,-0.3857 3.025,-1.2676 5.5,-1.9597 2.475,-0.6921 8.775,-2.5359 14,-4.0972 5.225,-1.5613 12.65,-3.7385 16.5,-4.8382 13.0297,-3.7218 21.9665,-6.3224 31.5,-9.1665 5.225,-1.5587 12.65,-3.7338 16.5,-4.8335 16.6418,-4.7536 22.3604,-6.4289 28.1312,-8.2411 3.3722,-1.059 7.2197,-1.9254 8.55,-1.9254 1.3303,0 2.8463,-0.369 3.3688,-0.8199 0.9214,-0.7953 8.8192,-3.3225 22.7,-7.2636 13.0251,-3.6982 21.3345,-6.1076 30.75,-8.9165 8.9468,-2.669 13.7163,-4.0544 31.25,-9.0767 3.9875,-1.1421 11.373,-3.3921 16.4124,-5 5.0393,-1.6078 9.8917,-2.9233 10.7832,-2.9233 4.8112,0 18.3501,-8.9219 25.5668,-16.848 23.2881,-25.5775 31.8777,-55.5313 23.5581,-82.1521 -1.6167,-5.1733 -2.8946,-9.5497 -7.7375,-26.5 -4.5284,-15.8492 -6.3239,-21.244 -8.6373,-25.9511 -3.8431,-7.8198 -4.6802,-8.896 -22.5458,-28.9877 l -4.8502,-5.4544 0.5562,-4.8034 c 0.3059,-2.6419 1.0699,-7.7284 1.6978,-11.3034 0.628,-3.575 1.3549,-12.35 1.6155,-19.5 l 0.4737,-13 -2.1549,-7 c -1.1853,-3.85 -3.0174,-10.0375 -4.0715,-13.75 -4.3649,-15.3731 -6.0267,-21.1151 -8.1036,-28 -6.4401,-21.3493 -19.2766,-37.4695 -36.8129,-46.2303 -3.025,-1.5112 -6.175,-3.3366 -7,-4.0563 -0.825,-0.7197 -3.4125,-2.0184 -5.75,-2.886 -2.3375,-0.8676 -6.1625,-2.331 -8.5,-3.252 -4.5053,-1.7752 -15.2687,-3.4264 -22.75,-3.4901 -7.8926,-0.067 -18.2338,2.413 -42.6624,10.232 -5.0394,1.613 -10.2369,2.9327 -11.55,2.9327 -1.3132,0 -2.8151,0.3718 -3.3376,0.8261 -0.5225,0.4544 -2.975,1.3898 -5.45,2.0788 -8.2376,2.2931 -18.3975,5.2304 -28,8.0951 -9.5335,2.8441 -18.4703,5.4447 -31.5,9.1665 -3.85,1.0997 -11.275,3.2748 -16.5,4.8335 -9.5114,2.8375 -18.3863,5.4202 -31.5,9.167 -3.85,1.1 -10.15,2.8997 -14,3.9995 -3.85,1.0997 -11.275,3.2748 -16.5,4.8335 -5.225,1.5587 -12.7625,3.7714 -16.75,4.917 -3.9875,1.1457 -10.5125,3.0203 -14.5,4.166 -32.2189,9.2566 -37.922,12.2466 -43.1398,22.6173 l -1.6102,3.2004 v 6.6684 6.6684 l 1.9248,6.1312 c 2.4358,7.7587 7.2849,23.9583 9.9922,33.3813 1.1456,3.9875 3.0203,10.5125 4.1659,14.5 1.1457,3.9875 3.3583,11.525 4.9171,16.75 2.844,9.5334 5.4446,18.4703 9.1664,31.5 1.0997,3.85 3.2748,11.275 4.8336,16.5 1.5587,5.225 3.7714,12.7625 4.917,16.75 1.1456,3.9875 3.0203,10.5125 4.1659,14.5 1.1457,3.9875 3.3583,11.525 4.9171,16.75 1.5587,5.225 3.7338,12.65 4.8335,16.5 3.7218,13.0298 6.3224,21.9667 9.1665,31.5001 1.5587,5.225 3.7338,12.65 4.8335,16.5 3.7218,13.0297 6.3224,21.9666 9.1665,31.5 2.5961,8.7025 3.7766,12.7538 8.4706,29.0702 l 1.6024,5.5703 5.2135,5.0685 c 2.8674,2.7877 6.5635,5.7933 8.2135,6.6791 l 3,1.6105 7,-0.4209 c 3.85,-0.2314 8.8,-0.7344 11,-1.1177 z m 62.8102,-79.8604 c -1.7544,-0.6389 -4.5563,-2.3793 -6.2265,-3.8674 l -3.0366,-2.7056 -2.3432,-4.7633 c -1.2888,-2.6198 -2.9096,-6.7883 -3.6018,-9.2633 -0.6923,-2.475 -2.5361,-8.775 -4.0974,-14 -1.5614,-5.225 -3.8088,-12.8751 -4.9943,-17.0001 -1.1855,-4.125 -2.5728,-8.8819 -3.0829,-10.571 -1.2909,-4.274 -1.1571,-10.7139 0.3225,-15.526 l 1.25,-4.0655 5,-4.7265 5,-4.7266 9,-2.764 c 4.95,-1.5202 12.15,-3.6691 16,-4.7752 3.85,-1.1061 11.275,-3.2865 16.5,-4.8452 5.225,-1.5587 12.65,-3.7338 16.5,-4.8335 17.5278,-5.0067 22.5937,-6.5093 31.1624,-9.2432 5.0393,-1.6078 10.3564,-2.9233 11.8157,-2.9233 1.4593,0 3.5776,-0.4947 4.7073,-1.0992 l 2.054,-1.0993 5.1303,1.6511 c 2.8216,0.9081 6.5617,2.4153 8.3113,3.3493 l 3.181,1.6981 2.3387,3.5 2.3388,3.5 3.1473,10 c 2.9475,9.3655 4.1374,13.3907 9.3857,31.75 1.1398,3.9875 2.4898,8.6319 3,10.321 0.5101,1.689 0.9275,5.1915 0.9275,7.7832 v 4.7123 l -2.4107,4.7168 -2.4108,4.7168 -3.3392,3.0721 -3.3393,3.0721 -10.25,3.1779 c -12.2629,3.802 -27.0629,8.24 -37,11.0949 -3.9875,1.1457 -10.5125,3.0203 -14.5,4.166 -9.4231,2.7072 -25.6226,7.5563 -33.3813,9.9921 l -6.1313,1.9249 -6.8687,-0.1193 -6.8687,-0.1193 z m -41.6914,-144.6438 c -7.9696,-3.0266 -12.3616,-8.6751 -15.5167,-19.9559 -0.6923,-2.475 -2.5361,-8.775 -4.0974,-14 -1.5614,-5.225 -3.8088,-12.875 -4.9943,-17 -1.1855,-4.125 -2.5728,-8.8819 -3.0829,-10.571 -0.5102,-1.689 -0.9275,-6.0989 -0.9275,-9.7997 v -6.7286 l 1.5507,-2.9988 c 0.8529,-1.6493 3.3869,-4.6576 5.6311,-6.6852 l 4.0805,-3.6864 7.6188,-2.3419 c 4.1904,-1.288 10.7689,-3.2447 14.6189,-4.3481 3.85,-1.1034 11.275,-3.2816 16.5,-4.8403 9.5334,-2.8441 18.4703,-5.4447 31.5,-9.1665 5.9866,-1.71 18.9159,-5.5394 30.071,-8.9065 1.689,-0.5099 5.6415,-0.927 8.7832,-0.927 h 5.7123 l 4.8763,2.471 4.8764,2.4711 2.859,4.2789 2.859,4.279 3.1484,10 c 1.7316,5.5 4.0482,13.15 5.1479,17 3.7603,13.1646 6.3113,21.9995 7.239,25.071 0.5101,1.689 0.9275,4.7415 0.9275,6.7832 v 3.7123 l -2.4224,4.7802 -2.4223,4.7802 -3.8779,3.5035 -3.8779,3.5034 -8.9498,2.7544 c -12.0439,3.7067 -26.385,7.9963 -35.1997,10.5288 -3.9875,1.1457 -10.5125,3.0203 -14.5,4.166 -3.9875,1.1456 -11.525,3.3583 -16.75,4.917 -5.225,1.5587 -12.875,3.804 -17,4.9895 -4.125,1.1855 -8.882,2.5729 -10.571,3.083 -4.3721,1.3204 -8.2102,1.0101 -13.8102,-1.1166 z m 343.1312,4.4256 c 2.0625,-0.3402 4.2,-0.9341 4.75,-1.3199 0.55,-0.3857 3.025,-1.2679 5.5,-1.9603 2.475,-0.6924 7.425,-2.088 11,-3.1013 3.575,-1.0133 8.525,-2.3633 11,-3 4.3775,-1.1261 10.3489,-2.8012 25.25,-7.0835 3.9875,-1.1459 10.2875,-2.9459 14,-4 3.7125,-1.0541 9.7875,-2.7789 13.5,-3.833 24.9141,-7.0738 35.1929,-10.0577 41.8812,-12.1581 3.3722,-1.059 7.0281,-1.9254 8.1241,-1.9254 1.096,0 4.1869,-1.1915 6.8687,-2.6477 l 4.876,-2.6477 5.35,-5.1023 c 2.9426,-2.8063 6.4454,-6.8051 7.784,-8.8863 1.3387,-2.0812 3.3187,-4.6687 4.4,-5.75 1.0813,-1.0813 1.966,-2.629 1.966,-3.4392 0,-1.2893 2.5093,-7.5325 5.13,-12.7632 l 0.87,-1.7365 v -10.1323 -10.1323 l -1.9255,-6.1312 c -1.0589,-3.3722 -2.8589,-9.3938 -4,-13.3813 -1.141,-3.9875 -2.9745,-10.4 -4.0745,-14.25 -1.1,-3.85 -2.9,-10.15 -4,-14 -4.8245,-16.8858 -5.9096,-20.7609 -7,-25 -0.6367,-2.475 -2.0597,-7.65 -3.1623,-11.5 -1.1026,-3.85 -2.8671,-10.0375 -3.9212,-13.75 -1.0541,-3.7125 -2.8165,-9.9 -3.9165,-13.74998 -1.1,-3.85 -2.8625,-10.0375 -3.9165,-13.75 -1.0541,-3.7125 -2.8541,-10.0125 -4,-14 -1.146,-3.9875 -2.9539,-10.2875 -4.0176,-14 -1.0637,-3.7125 -2.6591,-9.2689 -3.5451,-12.3476 l -1.6111,-5.5976 -3.2049,-3.0404 c -6.8878,-6.5345 -11.2331,-7.4292 -21.0736,-4.339 -5.6863,1.7857 -13.6204,4.0969 -24.6312,7.175 -6.419,1.7945 -11.0918,4.2843 -14.1846,7.558 l -2.6846,2.8416 -1.6457,4.8697 -1.6457,4.8697 1.0803,1.0803 c 0.5941,0.5942 1.0803,1.9437 1.0803,2.999 0,1.0553 0.9,4.7903 2,8.3 1.1,3.5097 2.9,9.2529 4,12.7626 1.1,3.5097 2,7.5331 2,8.9409 v 2.5598 l 1,0.618 c 0.55,0.3399 1,1.5449 1,2.6777 0,1.13288 0.8664,4.81878 1.9254,8.19098 1.059,3.3722 2.8214,9.2813 3.9165,13.1313 1.0951,3.85 2.9287,10.2625 4.0746,14.25 2.6525,9.2302 5.56,19.4064 8,28 2.0239,7.1282 4.6065,16.1757 7.9212,27.75 1.1026,3.85 2.5256,9.025 3.1623,11.5 1.1879,4.6179 4.4218,16.1055 6.0725,21.571 0.5101,1.689 0.9275,5.6489 0.9275,8.7997 v 5.7286 l -1.5486,2.9946 -1.5485,2.9945 -3.2015,1.9521 c -1.7608,1.0736 -4.0424,1.9537 -5.0702,1.9558 -1.0278,0 -4.6278,0.8701 -8,1.9291 -3.3722,1.059 -9.2812,2.8214 -13.1312,3.9165 -3.85,1.0951 -10.2625,2.9287 -14.25,4.0746 -3.9875,1.1459 -10.5125,3.0161 -14.5,4.156 -3.9875,1.1399 -8.632,2.4899 -10.321,3 -1.6891,0.5101 -5.7391,0.9116 -9,0.8921 l -5.929,-0.035 -2.1773,-1.2145 c -2.5926,-1.4467 -7.3227,-8.1503 -7.3227,-10.3782 0,-0.8659 -0.8665,-4.3334 -1.9255,-7.7056 -2.1003,-6.6884 -5.0842,-16.9671 -12.158,-41.8813 -1.0541,-3.7125 -2.8541,-10.0125 -4,-14 -1.1459,-3.9875 -2.9459,-10.2875 -4,-14 -1.0541,-3.7125 -2.7811,-9.7875 -3.8377,-13.5 -1.0567,-3.7125 -2.4422,-8.775 -3.0788,-11.25 -0.6367,-2.475 -2.0597,-7.65 -3.1623,-11.5 -1.1026,-3.85 -2.8671,-10.0375 -3.9212,-13.75 -10.8804,-38.32088 -11.5796,-40.20428 -16.7498,-45.11508 l -3.0164,-2.865 -4.821,-0.9007 -4.8211,-0.9007 -5.5041,1.5854 c -3.0273,0.872 -7.3041,2.0355 -9.5041,2.5856 -2.2,0.5501 -6.7591,1.8688 -10.1313,2.9304 -3.3722,1.0615 -6.8776,1.9301 -7.7898,1.9301 -11.4644,0 -19.717,14.42898 -15.6535,27.36868 2.2481,7.1589 5.4277,18.2291 7.0746,24.6313 0.6366,2.475 2.0597,7.65 3.1622,11.5 1.1026,3.85 2.8296,9.925 3.8378,13.5 1.0081,3.575 2.7706,9.7625 3.9165,13.75 2.6525,9.2302 5.56,19.4064 8,28 2.0239,7.1282 4.6065,16.1757 7.9212,27.75 1.1026,3.85 2.5256,9.025 3.1623,11.5 8.4935,33.0182 14.0992,45.8516 22.8005,52.1984 12.7762,9.319 16.6034,11.5597 24.3565,14.2599 2.3886,0.8319 5.693,1.526 7.343,1.5425 1.65,0.016 3.675,0.4868 4.5,1.0454 l 1.5,1.0155 3.25,-0.5309 c 1.7875,-0.2919 4.9375,-0.8091 7,-1.1493 z m 269.6187,-76.3069 c 5.7648,-1.8104 11.2278,-3.4047 27.3813,-7.9911 3.7125,-1.0541 9.9,-2.8165 13.75,-3.9165 3.85,-1.1 10.15,-2.9 14,-4 3.85,-1.1 10.15,-2.9021 14,-4.0047 3.85,-1.1026 9.025,-2.5256 11.5,-3.1623 5.3468,-1.3754 11.9568,-3.2361 38.5,-10.8377 3.85,-1.1026 9.025,-2.5653 11.5,-3.2505 l 4.5,-1.2457 5.08,-3.2736 5.07991,-3.2737 3.4201,-4.0372 c 9.4854,-11.197 11.3773,-14.4438 15.4016,-26.4319 l 2.5184,-7.5023 v -7.2527 -7.2527 l -0.9275,-3.071 c -1.3326,-4.4121 -7.8916,-27.3743 -10.1607,-35.571 l -1.2457,-4.49998 -3.2495,-5 c -7.17391,-11.0384 -17.89751,-18.6544 -33.76701,-23.9816 l -7.5023,-2.5184 h -8.2527 -8.2526 l -3.071,0.9275 c -5.4655,1.6507 -16.9531,4.8846 -21.571,6.0725 -2.475,0.6366 -7.65,2.0597 -11.5,3.1623 -11.5744,3.3147 -20.6219,5.8973 -27.75,7.9212 -16.1535,4.5864 -21.6165,6.1807 -27.3813,7.9911 l -6.1313,1.9254 h -8.0151 -8.0152 l -2.9339,-3.3416 -2.934,-3.3416 -2.7414,-8.9084 c -1.5078,-4.8996 -3.6418,-12.0584 -4.7422,-15.9084 -1.1003,-3.85 -2.418,-8.382 -2.9281,-10.071 -2.0735,-6.8654 -0.6107,-11.6143 5.2371,-17.0018 l 3.3354,-3.0728 7,-2.0984 c 3.85,-1.1541 9.025,-2.6153 11.5,-3.2471 2.475,-0.6318 7.259,-2.0172 10.6312,-3.0788 l 6.1313,-1.9301 h 4.9158 4.9158 l 3.534,3.75 c 1.9437,2.0625 5.1402,6.225 7.1033,9.25 3.9422,6.0745 6.6322,8.7749 11.5391,11.5835 l 3.2705,1.8719 1.9659,-1.2277 c 1.0813,-0.6752 2.7276,-1.2277 3.6585,-1.2277 0.9309,0 3.0745,-0.4174 4.7636,-0.9275 1.689,-0.5102 6.221,-1.8278 10.071,-2.9282 3.85,-1.1004 10.8838,-3.1937 15.6306,-4.6518 l 8.6307,-2.6511 3.0561,-3.1707 3.0562,-3.1707 1.6028,-4.75 1.6029,-4.75 -1.5379,-4.5298 c -0.8459,-2.4914 -2.6286,-6.6539 -3.9616,-9.25 l -2.4238,-4.7202 -6.828,-6.6565 -6.828,-6.6564 -8.2106,-4.0849 c -4.5158,-2.2467 -10.1408,-4.7572 -12.5,-5.579 l -4.2894,-1.4941 -8.3688,-0.015 -8.3687,-0.014 -6.1313,1.9254 c -3.3722,1.059 -9.5062,2.8925 -13.6312,4.0746 -4.125,1.182 -10.2591,3.0156 -13.6313,4.0746 -3.3722,1.0589 -7.2831,1.9254 -8.691,1.9254 h -2.5597 l -0.618,1 c -0.34,0.55 -1.5449,1 -2.6778,1 -1.1328,0 -4.8188,0.8664 -8.191,1.9254 -5.7648,1.8103 -11.2278,3.4047 -27.3812,7.9911 -15.5618,4.4184 -22.0515,6.6057 -27.25,9.1844 l -5.5,2.7282 -4.1889,4.3355 c -5.0652,5.2424 -12.9448,16.8504 -14.7719,21.7614 -0.7313,1.9657 -2.2768,6.0426 -3.4345,9.0599 l -2.1047,5.4859 v 6.7051 6.7051 l 1,0.618 c 0.55,0.3399 1,1.5449 1,2.6777 0,1.1329 0.8664,4.8188 1.9254,8.191 1.7779,5.6615 4.0205,13.358 7.177,24.63128 0.693,2.475 2.492,6.975 3.9977,10 l 2.7377,5.5 5.8311,5.6551 5.8311,5.655 8.2255,4.0938 c 4.524,2.2516 11.5783,5.2193 15.6763,6.5949 l 7.4508,2.5012 h 4.2527 c 2.339,0 5.6346,-0.4195 7.3237,-0.9322 1.689,-0.5128 5.096,-1.4482 7.571,-2.0788 4.5422,-1.1573 15.9067,-4.3508 21.571,-6.0615 1.689,-0.5101 4.1865,-0.9275 5.55,-0.9275 1.3634,0 2.9065,-0.3718 3.429,-0.8261 0.5225,-0.4544 2.975,-1.3898 5.45,-2.0788 6.7378,-1.8756 16.6155,-4.674 24.75,-7.0116 3.9875,-1.1459 10.5125,-3.0171 14.5,-4.1581 3.9875,-1.141 10.009,-2.941 13.3812,-4 l 6.1313,-1.9254 h 4.6684 4.6684 l 2.7003,1.405 c 1.4852,0.7727 3.6313,2.4602 4.7692,3.75 l 2.0689,2.345 2.0976,7 c 1.1537,3.85 3.0679,10.375 4.2537,14.5 1.1858,4.125 2.5733,8.8819 3.0835,10.571 0.5101,1.689 0.9275,5.7942 0.9275,9.1226 v 6.0517 l -4.4409,4.0935 -4.4409,4.0934 -2.8091,0.5797 c -1.545,0.3188 -5.9591,1.4966 -9.8091,2.6173 -10.7672,3.1344 -19.5498,5.5974 -24.5,6.8708 -6.4022,1.6469 -17.4724,4.8265 -24.6313,7.0746 l -6.1313,1.9254 h -4.9158 -4.9157 l -3.534,-3.75 c -1.9437,-2.0625 -5.1794,-6.2927 -7.1904,-9.4005 -2.011,-3.1078 -5.0466,-6.8203 -6.7457,-8.25 l -3.0893,-2.5995 h -6.1023 c -3.3562,0 -7.4842,0.4174 -9.1732,0.9275 -1.6891,0.5101 -6.221,1.8278 -10.071,2.9282 -3.85,1.1003 -10.8838,3.1936 -15.6307,4.6518 l -8.6307,2.6511 -3.0074,3.1707 c -1.654,1.7439 -3.775,4.6927 -4.7134,6.553 l -1.706,3.3823 0.5326,2.6177 c 0.2929,1.4397 0.9343,4.4458 1.4255,6.6802 l 0.8929,4.0625 2.3898,3.4375 c 4.0762,5.8636 14.1944,15.9235 19.7834,19.6696 l 5.3361,3.5766 7.6639,2.7406 7.664,2.7406 8.8687,0.1051 8.8687,0.105 z m 229.06031,-65.0021 c 3.365,-1.0163 14.2734,-4.1612 24.821,-7.156 3.7125,-1.0541 10.0125,-2.8541 14,-4 9.0217,-2.5926 19.1313,-5.4815 28.25,-8.0725 3.85,-1.0939 8.3819,-2.4064 10.071,-2.9165 1.689,-0.5101 4.1865,-0.9275 5.55,-0.9275 1.3634,0 2.9065,-0.3718 3.429,-0.8261 0.5225,-0.4544 2.975,-1.3898 5.45,-2.0788 10.3947,-2.8936 18.8749,-5.362 24.6313,-7.1697 3.3722,-1.059 7.2197,-1.9254 8.55,-1.9254 1.3303,0 2.8462,-0.3718 3.3687,-0.8261 0.5225,-0.4544 2.975,-1.3898 5.45,-2.0788 6.7378,-1.8756 16.6156,-4.674 24.75,-7.0116 15.0924,-4.3372 20.8722,-5.9567 24.75,-6.9351 10.1917,-2.5712 15.7189,-4.4952 18.7164,-6.5153 l 3.2531,-2.1922 2.2488,-3.9705 2.2488,-3.9704 0.016,-5.79288 0.016,-5.7928 -4.6252,-4.9447 -4.6252,-4.9448 -3.5868,-0.9903 -3.5867,-0.9904 -4.0381,0.5243 c -2.2209,0.2883 -7.0755,1.4033 -10.788,2.4779 -12.615,3.6512 -20.2399,5.7935 -24.75,6.9537 -5.3955,1.3879 -15.4225,4.2127 -38.75,10.9165 -3.9875,1.14588 -10.2875,2.94588 -14,3.99998 -24.9142,7.0738 -35.1929,10.0577 -41.8813,12.1581 -10.0095,3.1433 -13.9025,2.3157 -19.9415,-4.2393 l -3.0727,-3.3353 -2.1773,-7.25 c -2.8399,-9.45668 -5.7306,-19.62648 -7.1772,-25.24998 -0.6367,-2.475 -2.0221,-7.5375 -3.0788,-11.25 -2.795,-9.8201 -5.6311,-19.7407 -8.0047,-28 -1.1459,-3.9875 -2.9459,-10.2875 -4,-14 -1.0541,-3.7125 -2.8541,-10.0125 -4,-14 -6.7038,-23.3275 -9.5286,-33.3545 -10.9165,-38.75 -1.1298,-4.3919 -3.2387,-11.893 -6.4665,-23 -0.8791,-3.025 -2.8212,-7.7323 -4.3159,-10.4607 l -2.7176,-4.96071 -5,-1.78527 -5,-1.78527 -3.3687,-0.004 c -1.8528,-0.002 -6.1278,0.86241 -9.5,1.92139 -3.3722,1.05897 -9.2813,2.82931 -13.1313,3.93407 -3.85,1.10479 -9.5558,2.74519 -12.6795,3.64549 l -5.6794,1.6368 -4.5706,4.8863 -4.5705,4.8862 v 6.1616 6.1616 l 1.9254,6.1313 c 1.059,3.3722 2.859,9.3937 4,13.3812 1.141,3.9875 3.0122,10.5125 4.1581,14.5 1.1459,3.9875 2.9083,10.175 3.9165,13.75 1.0082,3.575 2.733,9.65 3.833,13.5 1.1,3.85 2.9,10.15 4,14 1.1,3.85 2.9021,10.15 4.0047,14 1.1026,3.85 2.5256,9.025 3.1623,11.5 1.1344,4.4098 2.8289,10.4855 6.833,24.5 1.1,3.85 2.9,10.15 4,13.99998 1.1,3.85 2.9752,10.375 4.167,14.5 1.1918,4.125 3.0294,10.5375 4.0835,14.25 1.0541,3.7125 2.781,9.7875 3.8377,13.5 1.0567,3.7125 2.4873,8.775 3.1792,11.25 2.467,8.8247 5.6147,13.4978 11.1565,16.5632 l 2.2431,1.2407 4.429,0.098 c 2.436,0.054 5.811,-0.3194 7.5,-0.8295 z m 62,-66 c 8.2111,-2.4799 29.5997,-8.53648 35.571,-10.07248 2.475,-0.6367 7.65,-2.0597 11.5,-3.1623 13.9154,-3.9852 21.1181,-6.038 27.5,-7.8377 3.575,-1.0082 9.7625,-2.7706 13.75,-3.9165 3.9875,-1.1459 10.5125,-3.0211 14.5,-4.167 3.9875,-1.1459 10.4,-2.9815 14.25,-4.079 3.85,-1.0975 9.4611,-2.7481 12.4691,-3.668 l 5.469,-1.6726 2.2645,-3.9985 2.2645,-3.9984 0.016,-4.8816 0.016,-4.8816 -4.3684,-4.3684 -4.3675,-4.3684 h -7.5726 -7.5726 l -0.618,1 -0.618,1 h -3.2744 c -1.8008,0 -3.5827,0.3084 -3.9596,0.6853 -0.3769,0.377 -2.3644,1.2702 -4.4167,1.985 l -3.7313,1.2996 -7.0629,0.015 -7.0629,0.015 -2.5081,-2.75 -2.5081,-2.75 -2.179,-7.25 c -2.1702,-7.2207 -4.6176,-15.6627 -8.2625,-28.5 -2.44,-8.5936 -5.3474,-18.7699 -8,-28 -3.773,-13.1291 -5.743,-20.1877 -6.9076,-24.75 -0.6318,-2.475 -2.0172,-7.2591 -3.0788,-10.6313 l -1.9301,-6.1314 v -4.92252 -4.92257 l 3.4724,-3.3656 3.4724,-3.36561 3.7776,-1.3155 c 2.0777,-0.72353 4.9401,-1.32228 6.3609,-1.33056 1.4209,-0.008 2.8918,-0.32346 3.2687,-0.7004 1.0229,-1.02287 7.8763,-3.28235 10.0083,-3.2996 l 1.8603,-0.0151 4.9877,-3.23191 4.9877,-3.23191 1.902,-3.72825 c 4.2196,-8.27103 -0.1892,-16.82765 -10.4677,-20.31588 l -4.8697,-1.65264 -1.0803,1.08029 c -0.5942,0.59417 -1.9437,1.0803 -2.999,1.0803 -1.0553,0 -4.6778,0.86644 -8.05,1.92542 -3.3722,1.05897 -9.3938,2.85897 -13.3813,4 -3.9875,1.14102 -10.4,2.97458 -14.25,4.07458 -3.85,1.1 -10.15,2.9 -14,4 -3.85,1.1 -10.2625,2.93356 -14.25,4.07458 -3.9875,1.14103 -10.0091,2.94103 -13.3813,4 -3.3722,1.05898 -7.2197,1.92542 -8.55,1.92542 -1.3303,0 -2.8462,0.37175 -3.3687,0.82612 -0.9145,0.79522 -4.6625,1.95865 -13.7,4.25267 -2.3375,0.59333 -7.175,1.90787 -10.75,2.92121 -3.575,1.01334 -8.525,2.40853 -11,3.10043 -2.475,0.6919 -6.145,2.0648 -8.1555,3.05089 l -3.6554,1.79288 -2.0946,2.66276 -2.0945,2.66276 v 5.88748 5.88746 l 4.1274,4.4777 4.1273,4.4776 h 5.5517 c 3.0534,0 6.9336,-0.4173 8.6226,-0.9275 1.6891,-0.5101 6.446,-1.8927 10.571,-3.0725 4.125,-1.1797 8.9625,-2.5914 10.75,-3.1372 l 3.25,-0.9922 3.75,1.2674 c 2.0625,0.6971 4.8852,2.2874 6.2726,3.534 l 2.5226,2.2665 1.2783,4.7808 c 0.7031,2.6294 2.1554,7.8182 3.2274,11.5307 1.072,3.7125 2.8491,9.9 3.9491,13.75 1.1,3.85 2.9,10.15 4,14 1.1,3.85 2.9,10.15 4,14 4.8245,16.8858 5.9095,20.7609 7,25 1.1879,4.6179 4.4218,16.1056 6.0725,21.571 0.5101,1.6891 0.9275,4.905 0.9275,7.1465 v 4.0754 l -3.389,2.9756 -3.3891,2.9756 -5.8609,1.6939 c -13.9923,4.044 -20.0889,6.0421 -23.4557,7.6875 l -3.5947,1.7567 -3.1553,3.5937 -3.1553,3.5937 v 3.5149 3.5149 l 1.6142,3.2003 c 0.8878,1.7602 2.7719,4.43788 4.1871,5.95038 l 2.5729,2.75 h 5.4919 c 3.0205,0 6.8739,-0.4174 8.5629,-0.9275 z M 1343.6061,1000 c 3.0095,-1.09998 6.4893,-1.99998 7.733,-1.99998 h 2.2612 l 3.9602,-3.5778 c 2.1781,-1.9678 4.229,-4.4246 4.5575,-5.4597 l 0.5973,-1.8819 -1.98,-6.2903 c -2.3316,-7.4072 -5.5057,-18.4618 -7.1182,-24.7903 -0.6306,-2.475 -1.566,-5.882 -2.0788,-7.571 -0.5127,-1.6891 -0.9322,-3.8266 -0.9322,-4.75 v -1.679 l 3.25,0.023 3.25,0.023 5,2.9142 c 2.75,1.6028 8.825,5.0024 13.5,7.5547 4.675,2.5523 12.775,7.045 18,9.9838 5.225,2.9388 13.0507,7.2155 17.3904,9.5037 l 7.8904,4.1604 5.6096,-0.4737 c 18.5484,-1.566 24.6143,-6.7547 21.1821,-18.1188 -1.1137,-3.6876 -4.5455,-15.6102 -7.0725,-24.571 -1.0082,-3.575 -2.733,-9.65 -3.833,-13.5 -1.1,-3.85 -2.9,-10.15 -4,-14 -1.1,-3.85 -2.9021,-10.15 -4.0047,-14 -1.1026,-3.85 -2.5216,-9.025 -3.1534,-11.5 -0.6318,-2.475 -2.0172,-7.2591 -3.0788,-10.6313 -1.0615,-3.3722 -1.9301,-7.1544 -1.9301,-8.4048 v -2.2736 l -4,-3.8051 c -4.3847,-4.1711 -4.549,-4.7249 -2.8205,-9.5052 l 1.1796,-3.262 -1.2583,-4.309 c -0.6921,-2.37 -2.1229,-7.34654 -3.1796,-11.05904 -1.0567,-3.7125 -2.8212,-9.9 -3.9212,-13.75 -1.1,-3.85 -2.9,-10.15 -4,-14 -1.1,-3.85 -2.9,-10.15 -4,-14 -4.8606,-17.01198 -5.91,-20.76491 -6.9911,-25 -0.6318,-2.475 -2.0172,-7.25907 -3.0788,-10.63127 -1.0615,-3.3722 -1.9301,-7.14391 -1.9301,-8.38158 v -2.25031 l -4.3684,-4.36842 -4.3684,-4.3685 h -4.465 c -2.4557,0 -4.7733,0.3084 -5.1502,0.68534 -1.1309,1.13091 -7.9795,3.28347 -10.498,3.2996 l -2.35,0.0151 -3.4,3.4 -3.4,3.4 v 4.279 c 0,2.35345 0.4174,5.66095 0.9275,7.35 0.5101,1.68905 1.8937,6.446 3.0746,10.571 1.1809,4.125 3.0135,10.25907 4.0725,13.63127 l 1.9254,6.13127 v 4.09373 4.09373 l -3.25,-0.60768 c -1.7875,-0.33422 -6.4,-2.31074 -10.25,-4.39227 -15.3169,-8.28116 -24.339,-13.27901 -31.5,-17.44951 -4.125,-2.40237 -11.0507,-6.23457 -15.3904,-8.51599 l -7.8904,-4.14804 -5.6096,0.47362 c -3.0853,0.26049 -7.5575,0.91833 -9.9383,1.46186 l -4.3287,0.98825 -3.4139,3.30887 c -1.8776,1.81988 -3.6668,4.10568 -3.9759,5.07955 l -0.562,1.77068 1.98,6.29033 c 1.9377,6.15593 4.4557,14.76372 8.1292,27.79033 1.0082,3.575 2.7351,9.65 3.8377,13.5 1.1026,3.85 2.5256,9.025 3.1623,11.5 1.0855,4.21975 2.1543,8.03798 6.9282,24.74998 1.0605,3.7125 3.1426,10.6998 4.627,15.5273 l 2.6988,8.7773 2.373,1.8666 2.373,1.8667 v 2.559 c 0,1.4075 -0.5162,3.6919 -1.147,5.0765 l -1.147,2.5174 0.9669,1.2796 c 0.5317,0.7038 1.5334,3.3046 2.2258,5.7796 5.2348,18.7119 8.9097,31.415 11.1759,38.6313 1.059,3.3722 1.9254,7.2831 1.9254,8.691 v 2.5597 l 1,0.618 c 0.55,0.3399 1,1.5449 1,2.6778 0,1.1328 0.8664,4.8188 1.9254,8.191 1.059,3.3722 2.8267,9.2812 3.9282,13.1312 1.1015,3.85 3.2153,10.944 4.6974,15.7645 l 2.6946,8.7644 2.9539,2.4856 2.954,2.48548 h 3.1873 3.1874 z m 35.5,-91.95208 c -3.85,-2.1389 -11.725,-6.4289 -17.5,-9.5333 -5.775,-3.1045 -13.875,-7.6098 -18,-10.0117 -4.125,-2.402 -10.1342,-5.7778 -13.3537,-7.5018 l -5.8537,-3.1346 0.6753,-3.1833 c 0.3714,-1.7508 0.9163,-5.3927 1.211,-8.0931 l 0.5357,-4.9099 -1.1073,-3.8401 c -0.609,-2.1121 -1.5928,-5.7526 -2.1861,-8.0901 -1.0928,-4.3054 -4.2964,-15.70117 -5.9937,-21.32102 -0.5101,-1.68905 -0.9275,-4.27655 -0.9275,-5.75 V 820 l 2.25,0.0316 2.25,0.0316 7,3.8875 c 3.85,2.13812 10.6,5.77344 15,8.07849 4.4,2.30503 8.7017,4.80853 9.5593,5.56323 1.5208,1.3385 4.2745,2.8618 22.8995,12.6676 l 9.0412,4.76 v 1.835 1.835 l -2,1.81 -2,1.8099 v 3.524 c 0,1.9383 0.4174,4.906 0.9275,6.5951 0.5101,1.689 1.8977,6.446 3.0835,10.571 1.1858,4.125 2.998,10.425 4.0271,14 1.0291,3.575 2.0737,8.4125 2.3213,10.75 l 0.4503,4.25 -2.6549,-0.032 -2.6548,-0.032 z m 384.8687,84.0267 c 3.3722,-1.059 9.5063,-2.8963 13.6313,-4.083 4.125,-1.1866 11.775,-3.4329 17,-4.9916 9.4155,-2.8089 17.7249,-5.2183 30.75,-8.9165 17.7853,-5.0498 36.4007,-10.5544 47.8813,-14.1586 3.3722,-1.0587 7.2197,-1.9249 8.55,-1.9249 1.3303,0 2.8462,-0.3718 3.3687,-0.8261 0.5225,-0.4544 2.975,-1.3896 5.45,-2.0783 2.475,-0.6887 8.775,-2.5296 14,-4.0909 9.7366,-2.9095 19.1552,-5.6498 31.5,-9.1649 3.85,-1.0962 11.1231,-3.3087 16.1624,-4.9165 5.0393,-1.6078 10.0761,-2.9233 11.1928,-2.9233 2.1246,0 6.2524,-2.1286 14.6448,-7.552 l 5,-3.2312 5.5,-6.0459 c 23.3094,-25.6233 31.8921,-55.5439 23.5706,-82.1709 -1.6154,-5.1688 -2.8132,-9.28827 -7.4871,-25.75002 -4.6214,-16.27659 -6.6909,-22.22085 -10.2442,-29.42438 -2.0821,-4.22091 -4.2659,-7.97124 -4.853,-8.33406 -0.587,-0.36283 -2.1776,-2.41839 -3.5345,-4.56793 l -2.4672,-3.90825 -3.7423,-2.5321 c -2.0583,-1.39266 -5.5423,-3.88233 -7.7423,-5.53262 -2.2,-1.65029 -8.275,-5.15453 -13.5,-7.7872 l -9.5,-4.78668 -7.5,-2.26089 c -4.125,-1.24348 -8.8819,-2.67825 -10.571,-3.18838 L 1927.9641,736 h -8.358 -8.358 l -3.071,0.92751 c -1.6891,0.51013 -6.446,1.89746 -10.571,3.08296 -4.125,1.1855 -11.775,3.43079 -17,4.98953 -8.9468,2.66905 -13.7164,4.05439 -31.25,9.07667 -3.9875,1.14217 -11.3731,3.39217 -16.4124,5 -5.0393,1.60783 -10.2368,2.92333 -11.55,2.92333 -1.3132,0 -2.8151,0.37175 -3.3376,0.82612 -0.5225,0.45437 -2.975,1.38982 -5.45,2.07879 -8.2375,2.29308 -18.3975,5.23043 -28,8.09509 -5.225,1.55874 -12.875,3.80403 -17,4.98953 -4.125,1.1855 -8.8819,2.57283 -10.571,3.08296 -4.5335,1.36921 -7.3508,1.14918 -13.3466,-1.04238 l -5.3894,-1.96988 -2.4455,-2.28012 c -2.8796,-2.6849 -6.3788,-9.46388 -8.1454,-15.78011 -0.6922,-2.475 -2.5361,-8.775 -4.0974,-14 -1.5613,-5.225 -3.8087,-12.875 -4.9942,-17 -1.1855,-4.125 -2.5729,-8.88195 -3.083,-10.571 -0.5101,-1.68905 -0.9275,-6.09889 -0.9275,-9.79966 v -6.72866 l 1.5507,-2.99877 c 0.8529,-1.64932 3.3869,-4.65765 5.6312,-6.68519 l 4.0804,-3.68641 7.6188,-2.34191 c 4.1904,-1.28804 10.7689,-3.24469 14.6189,-4.34811 6.0029,-1.72045 19.2402,-5.64411 30.071,-8.91332 1.689,-0.50984 5.6489,-0.92697 8.7997,-0.92697 h 5.7286 l 2.7755,1.43526 c 3.9042,2.01896 8.5934,7.62367 16.1252,19.27375 l 6.5,10.05407 5.2722,2.61846 5.2721,2.61846 h 4.6569 c 2.5612,0 6.0388,-0.41713 7.7278,-0.92697 10.5784,-3.19304 24.0536,-7.18941 30.071,-8.91824 24.8043,-7.12638 29.0977,-8.97802 32.1303,-13.85705 0.9564,-1.53876 2.5847,-3.75748 3.6185,-4.93049 l 1.8795,-2.13275 0.033,-8.36725 0.033,-8.36725 -2.0247,-5.28695 c -1.1136,-2.90782 -3.6545,-7.63282 -5.6464,-10.5 C 1893.0891,633.13951 1891.4334,631 1890.5177,631 c -0.526,0 -2.8587,-1.6875 -5.1839,-3.75 -6.2766,-5.5674 -9.3468,-7.53449 -20.8133,-13.33531 l -10.4144,-5.26858 -4.5,-0.79098 c -2.475,-0.43504 -6.975,-1.30109 -10,-1.92454 -10.3221,-2.12741 -20.1091,-0.96097 -38,4.52895 -14.0373,4.30743 -25.7032,7.74138 -46,13.54046 -15.7174,4.4907 -21.9478,6.29952 -31,9 -10.1198,3.01897 -20.431,6.01498 -31,9.00726 -3.575,1.01215 -13.1704,3.97248 -21.3231,6.5785 l -14.8231,4.73822 -4.6769,2.99978 c -6.4233,4.11996 -16.6603,14.14721 -20.5983,20.17624 -13.6596,20.91312 -17.8927,32.11609 -19.2558,50.96125 l -0.5035,6.96125 1.1691,4.03875 c 0.6431,2.22131 2.0711,7.18875 3.1733,11.03875 1.1023,3.85 3.2796,11.275 4.8383,16.5 2.7926,9.36108 5.6336,19.17996 8.1016,28 2.612,9.33516 7.4045,17.3867 15.3712,25.82445 l 5.0272,5.32445 8,5.33293 c 4.4,2.93311 10.025,6.22329 12.5,7.31159 9.8702,4.3399 12.6198,5.4288 19.7662,7.8278 l 7.4369,2.4964 11.1485,-0.439 c 11.194,-0.4408 16.4338,-1.1228 20.1484,-2.6222 1.1,-0.4441 3.2587,-1.3134 4.7971,-1.9319 1.5383,-0.6185 4.0358,-1.1245 5.55,-1.1245 1.5141,0 3.1804,-0.3718 3.7029,-0.8261 0.5225,-0.4544 2.975,-1.3896 5.45,-2.0783 2.475,-0.6887 8.775,-2.5296 14,-4.0909 5.225,-1.56135 12.7625,-3.77613 16.75,-4.92176 3.9875,-1.14563 10.5125,-3.02029 14.5,-4.16592 3.9875,-1.14563 11.525,-3.3583 16.75,-4.91704 8.9468,-2.66905 13.7164,-4.05439 31.25,-9.07667 3.9875,-1.14217 11.3731,-3.39217 16.4124,-5 5.0393,-1.60783 10.3564,-2.92333 11.8157,-2.92333 1.4594,0 3.5777,-0.49466 4.7073,-1.09924 l 2.054,-1.09924 5.1303,1.65111 c 2.8217,0.90811 6.5618,2.41527 8.3113,3.34924 l 3.181,1.69813 2.3387,3.5 2.3388,3.5 3.1473,10 c 2.9476,9.36552 4.1375,13.39062 9.3857,31.75002 1.1399,3.9875 2.4899,8.6319 3,10.321 0.5101,1.689 0.9275,5.1915 0.9275,7.7832 v 4.7123 l -2.4107,4.7167 -2.4107,4.7168 -3.3393,3.0721 -3.3393,3.0721 -10.25,3.1779 c -12.5532,3.892 -27.4122,8.3442 -36.75,11.0114 -19.9097,5.687 -36.8259,10.6924 -48.1313,14.2416 l -6.1312,1.9249 h -7.9709 -7.9708 l -3.3979,-2.2827 -3.3979,-2.2828 -8.6013,-12.875 -8.6013,-12.8751 -5.3987,-2.795 -5.3987,-2.7951 -3.929,-0.047 c -2.161,-0.026 -5.311,0.37 -7,0.8798 -10.7012,3.2301 -24.094,7.2011 -30.321,8.9901 -28.8333,8.2839 -31.0022,9.5151 -36.6425,20.7997 l -2.6075,5.2168 v 5.5468 5.5468 l 0.87,1.7365 c 0.4785,0.955 1.869,3.9864 3.0901,6.7364 1.221,2.75 3.7083,7.25 5.5271,10 l 3.3071,5 7.0281,6.5 c 3.8655,3.575 8.5243,7.6791 10.3529,9.1202 7.5705,5.9663 30.9111,15.8594 37.501,15.8951 1.553,0.01 3.4987,0.4515 4.3237,0.9847 l 1.5,0.9694 6.8687,0.015 6.8688,0.015 z m -267.8687,-46.0894 c 3.3,-1.0098 9.15,-2.732 13,-3.8271 11.928,-3.3929 21.616,-6.2095 31.5,-9.1581 5.225,-1.5588 12.875,-3.8088 17,-5 4.125,-1.1913 11.775,-3.4413 17,-5 5.225,-1.5588 12.875,-3.8088 17,-5 4.125,-1.1913 11.775,-3.4413 17,-5 5.225,-1.5588 12.65,-3.7339 16.5,-4.8336 14.8703,-4.2475 22.1347,-6.6009 25.5947,-8.2918 l 3.5947,-1.7568 3.1553,-3.5937 3.1553,-3.5937 -0.015,-4.2152 -0.014,-4.2152 -1.5561,-4.5 -1.556,-4.5 -2.6794,-2.8416 c -1.4737,-1.5629 -4.4417,-3.7477 -6.5957,-4.8552 l -3.9163,-2.0136 -4.0837,1.184 c -2.246,0.6512 -7.2337,2.0858 -11.0837,3.1881 -3.85,1.1023 -11.275,3.2795 -16.5,4.8383 -5.225,1.5587 -12.875,3.8087 -17,5 -4.125,1.1912 -11.775,3.4412 -17,5 -9.9713,2.9747 -19.7939,5.8297 -31.5,9.156 -3.85,1.0939 -8.575,2.4797 -10.5,3.0795 l -3.5,1.0906 -5.5,-0.1265 -5.5,-0.1265 -3.2187,-3.4877 -3.2187,-3.4877 -0.5765,-2.7989 c -0.5485,-2.6624 -4.389,-15.6404 -8.5612,-28.9301 l -1.925,-6.1313 v -3.6585 -3.6586 l 1.9094,-3.7427 1.9093,-3.7427 2.3407,-1.1513 c 1.2873,-0.6333 3.9156,-1.5983 5.8406,-2.14449 1.925,-0.54618 8,-2.33859 13.5,-3.98314 5.5,-1.64454 13.375,-3.96473 17.5,-5.15599 4.125,-1.19126 11.775,-3.44126 17,-5 16.395,-4.89101 23.415,-6.89134 26.0594,-7.42547 1.4077,-0.28433 4.1008,-1.55572 5.9848,-2.82532 l 3.4253,-2.30835 2.2488,-3.97043 2.2488,-3.97043 -0.025,-4.5 -0.025,-4.5 -1.7298,-3 c -0.9513,-1.65 -2.6078,-4.42701 -3.6811,-6.17113 l -1.9513,-3.17114 -3.3109,-1.57886 -3.311,-1.57887 h -3.5848 -3.5848 l -6.1312,1.92488 c -3.3722,1.05868 -10.8563,3.34249 -16.6313,5.07512 -5.775,1.73263 -13.2591,4.01644 -16.6313,5.07512 -3.3722,1.05869 -7.2197,1.92488 -8.55,1.92488 -1.3303,0 -2.8462,0.36897 -3.3687,0.81993 -0.5225,0.45096 -4.325,1.83452 -8.45,3.07458 -4.125,1.24006 -10.2591,3.1211 -13.6313,4.18007 L 1503.8436,798 h -4.9317 -4.9316 l -2.5771,-2.75 c -2.9672,-3.16635 -6.7971,-10.39486 -6.7971,-12.82889 0,-0.91221 -0.9386,-4.64264 -2.0858,-8.28984 -1.1472,-3.6472 -2.9472,-9.39034 -4,-12.76254 l -1.9142,-6.13127 v -7.01514 -7.01514 l 3.389,-2.97562 3.3891,-2.97562 5.8609,-1.6939 c 11.2164,-3.24168 19.9046,-5.74148 26.861,-7.72849 3.85,-1.09971 11.275,-3.27481 16.5,-4.83355 5.225,-1.55874 12.875,-3.80874 17,-5 7.8879,-2.27795 21.4128,-6.29617 34,-10.10138 4.125,-1.24702 9.1814,-3.0904 11.2365,-4.09642 l 3.7366,-1.82912 2.0134,-3.9467 2.0135,-3.9467 v -4.06836 -4.06835 l -2.9631,-5.86989 -2.9631,-5.86988 -2.6718,-2.1016 -2.6717,-2.1016 h -7.1652 -7.1651 l -0.95,0.82612 c -0.5225,0.45437 -2.975,1.38982 -5.45,2.07879 -11.9356,3.32251 -18.6543,5.38023 -20.2364,6.19781 -0.9551,0.4935 -3.0026,0.89728 -4.55,0.89728 -1.5475,0 -3.2411,0.37175 -3.7636,0.82612 -0.5225,0.45437 -2.975,1.38958 -5.45,2.07826 -2.475,0.68867 -8.775,2.52959 -14,4.09092 -5.225,1.56133 -12.875,3.81344 -17,5.0047 -4.125,1.19126 -11.775,3.44126 -17,5 -5.225,1.55874 -12.65,3.73384 -16.5,4.83355 -13.6603,3.9019 -22.1188,6.36805 -31.5,9.18401 -5.225,1.5684 -12.0793,3.59535 -15.2317,4.50435 -3.1524,0.90899 -7.1955,2.63922 -8.9847,3.84497 l -3.2531,2.19226 -2.2488,3.97043 -2.2488,3.97043 -0.016,3.8376 -0.016,3.83759 2.9233,9.16241 c 2.7339,8.56869 4.2365,13.63452 9.2432,31.1624 1.0997,3.85 3.2748,11.275 4.8335,16.5 1.5587,5.225 3.8087,12.875 5,17 1.1913,4.125 3.4413,11.775 5,17 1.5587,5.225 3.8087,12.87502 5,17.00002 1.1913,4.125 3.4413,11.775 5,17 1.5587,5.225 3.8087,12.875 5,17 1.1913,4.125 3.4413,11.775 5,17 1.5587,5.225 3.7378,12.65 4.8424,16.5 1.1046,3.85 3.6605,12.2414 5.6798,18.6476 l 3.6714,11.6477 3.2469,3.147 3.2469,3.1471 2.9063,0.8914 2.9063,0.8914 4,-0.5255 c 2.2,-0.289 6.7,-1.3517 10,-2.3615 z m 142.6536,-345.19276 c -2.7416,-11.71085 -5.5065,-23.99246 -6.1441,-27.29246 -0.6377,-3.3 -2.0178,-8.7 -3.067,-12 -1.0492,-3.3 -2.6311,-10.725 -3.5153,-16.5 l -1.6077,-10.5 -0.5192,-19.5 -0.5192,-19.5 1.6469,-9.46745 1.6469,-9.46745 2.9491,-8.45633 2.9492,-8.45633 4.2136,-7.36451 c 2.3176,-4.05048 7.0703,-10.93478 10.5616,-15.29845 l 6.348,-7.93394 8.8844,-8.14744 c 15.8449,-14.53065 36.8233,-29.57097 68.7728,-49.30625 7.8395,-4.84247 14.5035,-9.20889 14.809,-9.70317 L 1746.7241,361 h -0.9594 c -0.5278,0 -7.4168,1.53833 -15.3091,3.41852 -17.9714,4.28136 -40.8705,8.89766 -55.8495,11.25885 l -11.5,1.81278 -23,-0.05 -23,-0.05 -9.9286,-2.68274 -9.9286,-2.68274 -9.2313,-4.49072 -9.2312,-4.49073 -7.8401,-5.94845 C 1550.4908,341.5748 1527.604,312.7797 1502.1195,270.5 c -4.3097,-7.15 -8.4947,-13.675 -9.3,-14.5 l -1.4642,-1.5 0.5698,3.5 c 0.3134,1.925 2.5735,12.30591 5.0225,23.06869 5.4546,23.97215 9.2348,45.54156 10.7664,61.43131 l 1.1566,12 -0.5542,14.5 -0.5542,14.5 -2.5818,9.99189 -2.5818,9.99188 -4.2463,8.98359 -4.2462,8.98358 -5.8778,8.02453 -5.8779,8.02453 -9.6643,9.5 c -15.7187,15.45142 -39.0977,32.51144 -72.58,52.96285 -6.6,4.03136 -12.6589,7.93891 -13.4643,8.68345 L 1385.1775,510 h 1.6008 c 0.8804,0 8.0643,-1.5398 15.9642,-3.42178 19.4437,-4.632 37.3953,-8.2257 53.1973,-10.64947 l 13.1663,-2.0195 15.5889,-0.59838 15.5888,-0.59838 9.718,1.2232 c 37.3969,4.70717 77.7159,35.06864 97.6873,73.56156 1.4578,2.8098 5.5595,9.58488 9.1149,15.05574 3.5554,5.47085 10.4184,16.47201 15.2511,24.44701 4.8328,7.975 9.2798,15.11184 9.8824,15.85965 l 1.0955,1.35966 0.3557,-1.06719 c 0.1957,-0.58696 -1.8874,-10.6488 -4.629,-22.35966 z m -878.90361,1117.68504 -5.25,-5.2357 v -6.486 -6.486 l -2,-2.5426 c -1.1,-1.3984 -2,-3.0756 -2,-3.7271 0,-0.6515 0.9,-2.3287 2,-3.7271 1.1,-1.3985 2,-3.1985 2,-4 0,-0.8016 0.9,-2.6016 2,-4 l 2,-2.5426 v -2.6652 -2.6651 l 1.2,-1.2 1.2,-1.2 h 2.6651 2.6651 l 2.5426,-2 c 1.3985,-1.1 3.1985,-2 4,-2 0.8016,0 2.6016,-0.9 4,-2 1.3985,-1.1 3.2871,-2 4.197,-2 2.814,0 11.3935,-3.1304 12.6157,-4.603 l 1.1594,-1.397 h 5.7427 5.7426 l 2.5426,-2 2.5426,-2 h 9.5838 9.5838 l 1.249,-2 1.2491,-2 h 9.7246 9.7247 l 3.4168,-3 3.4168,-3 h 6.4831 6.4831 l 2.5426,-2 2.5426,-2 h 8.4574 8.4574 l 2.5426,-2 2.5426,-2 h 11.5356 11.5356 l 1.3067,-1.8413 c 0.7186,-1.0127 2.2896,-2.3627 3.4909,-3 l 2.1843,-1.1587 h 8.5572 8.5573 l 1.249,-2 1.2491,-2 h 9.6246 9.6246 l 2.5426,-2 2.5425,-2 h 10.4575 10.4574 l 2.5426,-2 2.5425,-2 h 10.13221 10.1321 l 3.8923,-1.9857 c 2.1408,-1.0922 4.1744,-2.4422 4.5192,-3 l 0.6268,-1.0143 h 10.8062 10.8061 l 2.5426,-2 2.5426,-2 h 13.4574 13.4574 l 2.5426,-2 2.5426,-2 h 11.5574 11.5575 l 3.4168,-3 3.4168,-3 h 15.4832 15.4831 l 2.5426,-2 2.5426,-2 h 15.5838 15.5838 l 1.249,-2 1.249,-2 h 19.7027 19.7028 l 1.3067,-1.8413 c 0.7187,-1.0127 2.2361,-2.3341 3.3721,-2.9364 l 2.0654,-1.0951 5.4346,0.5305 c 2.989,0.2917 12.2568,0.7347 20.5951,0.9844 l 15.1605,0.4539 3.4715,-3.048 3.4715,-3.048 h 24.4832 24.4831 l 2.5426,-2 2.5426,-2 h 29.4574 29.4574 l 2.4857,-1.9552 2.4857,-1.9553 17.8991,-0.5378 c 9.8446,-0.2958 25.3242,-0.7944 34.3992,-1.1079 l 16.5,-0.57 3.5837,1.1683 3.5837,1.1682 4.0984,-2.0908 c 2.2542,-1.15 4.3806,-2.5474 4.7254,-3.1052 l 0.6268,-1.0143 h 61.8062 61.8061 l 2.5426,-2 2.5426,-2 h 138.1845 138.1845 l 2.5426,2 2.5426,2 h 68.8061 68.8062 l 0.6268,1.0143 c 0.3448,0.5578 2.4389,1.9387 4.6536,3.0685 l 4.0266,2.0543 9.1555,-0.6334 c 11.7546,-0.8131 55.039,-0.8078 68.5872,0.01 l 10.4316,0.6285 2.4532,1.9297 2.4532,1.9297 h 18.6246 18.6246 l 1.249,2 1.249,2 h 2.7245 2.7245 l 10.267,10.2321 10.2671,10.2322 v 2.633 2.633 l 2,2.5426 c 1.1,1.3984 2,3.1984 2,4 0,0.8015 0.8627,2.5542 1.9172,3.8947 l 1.9171,2.4372 0.2628,26.0611 0.2628,26.0611 -2.18,2.7714 -2.1799,2.7713 v 2.6781 2.678 l -3.0916,2.9371 c -1.7004,1.6154 -4.0011,4.7371 -5.1128,6.9371 -2.4245,4.7979 -5.6632,8.5 -7.436,8.5 -0.7105,0 -2.8886,0.7615 -4.8403,1.6922 l -3.5485,1.6922 -1.9517,3.3078 -1.9516,3.3078 h -4.8989 -4.8989 l -2.5426,2 -2.5426,2 h -26.1845 -26.1845 l -2.5426,-2 -2.5426,-2 h -18.4574 -18.4574 l -2.5426,-2 -2.5426,-2 h -15.7971 -15.797 l -2.1362,-3 -2.1362,-3 h -18.5242 -18.5241 l -2.5426,-2 -2.5426,-2 h -15.4574 -15.4574 l -2.5426,-2 -2.5426,-2 h -20.4831 -20.4832 l -3.469,-3.0459 -3.4691,-3.0458 -16.1629,0.4492 c -8.8897,0.2472 -18.6111,0.6893 -21.6032,0.9825 l -5.4401,0.5332 -3.3447,-2.9366 -3.3446,-2.9366 h -27.5575 -27.5574 l -2.5426,-2 -2.5426,-2 h -26.4574 -26.4574 l -2.5426,-2 -2.5426,-2 h -41.4831 -41.4832 l -3.4168,-3 -3.4168,-3 h -79.5575 -79.5574 l -2.5426,-2 -2.5426,-2 h -44.8567 -44.8567 l -1.249,2 -1.249,2 h -70.2993 -70.2993 l -3.8923,1.9857 c -2.1408,1.0922 -4.1744,2.4422 -4.5192,3 l -0.6268,1.0127 h -34.9325 -34.9326 l -1.249,2 -1.249,2 h -25.6246 -25.6246 l -2.5426,2 -2.5426,2 -21.3422,0.018 -21.3423,0.018 -4.5,3.0498 -4.5,3.0497 -2.5,-0.7293 c -3.2656,-0.9527 -17.5987,-0.8165 -26.6477,0.2533 l -7.1477,0.845 -1.9311,1.7476 -1.931,1.7475 h -18.66281 -18.6628 l -1.249,2 -1.249,2 h -14.751 -14.751 l -1.249,2 -1.249,2 h -13.7247 -13.7246 l -3.4169,3 -3.4168,3 h -13.4831 -13.4831 l -2.5426,2 -2.5426,2 h -11.5838 -11.5838 l -1.249,2 -1.249,2 h -9.7595 -9.7594 l -2,2 c -1.1,1.1 -2,2.45 -2,3 v 1 h -6.5399 -6.5398 l -3.9203,2 -3.9204,2 -21.2898,-0.1434 -21.2898,-0.1434 z m 50.25,2.5226 3.5608,-2 h 6.2815 6.2815 l 2.218,-3 2.218,-3 h 9.9349 9.9349 l 1.0704,-2 1.0703,-2 h 12.3099 12.3098 l 1.81,-2 1.8099,-2 h 14.158 14.1579 l 2.8742,-3 2.8741,-3 h 13.7778 13.7777 l 1.0704,-2 1.0703,-2 h 14.9297 14.9296 l 1.0704,-2 1.0704,-2 h 19.3098 19.30981 l 1.81,-2 1.81,-2 h 6.286 6.286 l 0.6616,-1.0705 0.6615,-1.0704 12.8388,0.2998 12.8388,0.2999 2.3731,-2.2294 2.3731,-2.2294 h 22.0306 22.0305 l 1.81,-2 1.81,-2 h 25.8098 25.8098 l 1.0704,-2 1.0704,-2 h 35.3423 35.3424 l 1.2277,-1.4793 c 0.6752,-0.8135 2.5994,-2.1635 4.2761,-3 l 3.0484,-1.5207 h 70.3112 70.3111 l 1.0704,-2 1.0704,-2 h 46.8098 46.8098 l 1.81,2 1.81,2 h 80.1579 80.1579 l 2.8742,3 2.8742,3 h 42.1579 42.1579 l 1.81,2 1.81,2 h 27.19 27.19 l 1.81,2 1.81,2 h 28.0474 28.0474 l 3.2566,3.1565 3.2566,3.1564 1.291,-1.0107 1.291,-1.0108 20.5,-0.2154 20.5,-0.2154 2.9371,3.0697 2.9371,3.0697 h 21.1579 21.1579 l 1.81,2 1.81,2 h 16.19 16.19 l 1.81,2 1.81,2 h 19.2904 19.2905 l 1.3169,2.75 1.3169,2.75 16.604,0.2736 16.604,0.2735 1.7886,1.9765 1.7887,1.9764 h 19.19 19.19 l 1.81,2 1.81,2 h 25.69 25.69 l 1.7679,-1.9535 1.7678,-1.9534 5.5609,-0.2966 5.5608,-0.2965 1.6287,-2.9476 1.6286,-2.9477 2.9477,-1.7293 c 1.6212,-0.9511 3.8817,-1.7621 5.0233,-1.8023 l 2.0757,-0.073 2.0095,-2.25 c 1.1053,-1.2375 2.7292,-3.825 3.6087,-5.75 0.8794,-1.925 3.2036,-5.0508 5.1647,-6.9462 l 3.5657,-3.4461 v -2.9894 -2.9894 l 2.0974,-2.2326 2.0974,-2.2326 -0.1442,-25.3173 -0.1443,-25.3172 -1.9532,-2.0791 -1.9531,-2.079 v -2.0306 -2.0305 l -2,-1.81 -2,-1.81 v -3.1129 -3.1128 l -10.2671,-10.2322 -10.267,-10.2321 h -3.1978 -3.1977 l -1.0704,-2 -1.0704,-2 h -18.8098 -18.8098 l -1.7552,-1.9394 -1.7552,-1.9395 -11.1498,-0.6115 c -14.2881,-0.7837 -52.7622,-0.7845 -67.6766,0 l -11.5268,0.6053 -3.9732,-2.7315 -3.9732,-2.7315 -67.739,0.263 -67.7391,0.2631 -3.7609,-2.3384 -3.761,-2.3383 -136.3991,-0.3278 -136.3992,-0.3278 -2.8103,2.0778 -2.8104,2.0778 h -61.9181 -61.918 l -1.2277,1.4793 c -0.6752,0.8135 -2.5994,2.1635 -4.2761,3 l -3.0484,1.5207 h -3.2873 -3.2874 l -0.618,-1 -0.618,-1 h -15.882 -15.882 l -0.618,1 -0.618,1 h -18.286 -18.286 l -1.81,2 -1.81,2 h -30.19 -30.19 l -1.81,2 -1.81,2 h -25.1579 -25.1579 l -2.9371,3.0844 -2.9371,3.0843 -22.3774,-0.3343 -22.3773,-0.3344 -1.4946,2.25 -1.4946,2.25 h -19.8429 -19.8428 l -1.0704,2 -1.0704,2 h -16.3098 -16.3098 l -1.81,2 -1.81,2 h -16.1579 -16.1579 l -2.8742,3 -2.8742,3 h -12.1579 -12.1579 l -1.81,2 -1.81,2 h -13.7101 -13.7102 l -2.5426,2 -2.5426,2 h -10.9698 -10.9698 l -1.2277,1.4793 c -0.6752,0.8135 -2.5994,2.1635 -4.2761,3 l -3.0484,1.5207 h -10.2115 -10.2115 l -2.54261,2 -2.5426,2 h -10.9373 -10.9372 l -1.81,2 -1.81,2 h -9.8098 -9.8099 l -1.0703,2 -1.0704,2 h -8.5145 -8.5145 l -2.8291,1.463 c -1.5561,0.8047 -3.0946,2.1547 -3.419,3 l -0.5898,1.537 h -11.8965 -11.8965 l -2.5426,2 -2.5426,2 h -8.9373 -8.9373 l -1.8099,2 -1.81,2 h -7.1579 -7.158 l -2.8741,3 -2.8742,3 h -9.7777 -9.7778 l -1.0703,2 -1.0704,2 h -9.83 -9.8299 l -2.5426,2 -2.5426,2 h -5.7635 -5.7636 l -1.8713,1.6936 c -2.1584,1.9533 -8.3117,4.2694 -11.4013,4.2913 l -2.1151,0.015 -2.5426,2 c -1.3984,1.1 -3.1984,2 -4,2 -0.8016,0 -2.6016,0.9 -4,2 l -2.5426,2 h -2.5208 -2.5209 l -1.5714,1.5714 -1.5714,1.5715 v 2.7735 2.7736 l -2,1.81 -2,1.81 v 2.0305 2.0306 l -2.1743,2.3144 -2.1744,2.3145 2.1258,2.2627 2.1257,2.2627 0.2986,7.4615 0.2986,7.4615 2.1384,1.0624 c 1.1762,0.5843 3.6512,2.7217 5.5,4.7497 l 3.3616,3.6872 19.7195,0.026 19.7196,0.026 z m 861.00001,-188 -2.8742,-3 h -16.1579 -16.1579 l -1.81,-2 -1.81,-2 h -5.286 -5.286 l -0.6376,-1.0317 c -0.8037,-1.3004 -23.9876,-12.9683 -25.7678,-12.9683 h -1.3182 l -16.6972,-16.86 c -9.1835,-9.273 -16.6972,-17.383 -16.6972,-18.0222 0,-1.6557 -7.7408,-16.8395 -8.9731,-17.6012 l -1.0269,-0.6346 v -2.286 -2.286 l -2,-1.81 -2,-1.81 v -4.2225 -4.2226 l -1.5659,-1.2996 c -0.8613,-0.7148 -2.2113,-2.5476 -3,-4.0728 l -1.4341,-2.7732 v -8.8947 -8.8946 l -2,-1.81 -2,-1.81 v -20.6707 -20.6707 l 2.4504,-2.302 2.4505,-2.3021 -0.5911,-6.33 -0.5911,-6.3301 3.1406,-3.577 3.1407,-3.577 v -4.8102 -4.8102 l 2,-1.81 2,-1.81 v -2.19 -2.19 l 2,-1.81 2,-1.81 v -1.9984 -1.9984 l 5,-5.2867 5,-5.2868 v -1.8243 -1.8244 L 1577.37,1294.7356 1590.1339,1282 h 2.4861 l 2.4861,-10e-5 2.8045,-3.5148 2.8045,-3.5148 6.9205,-3.4852 6.9206,-3.4851 h 3.8378 3.8379 l 2.8742,-3 2.8742,-3 h 4.678 4.6781 l 2.5426,-2 2.5426,-2 h 33.1845 33.1845 l 2.5426,2 2.5426,2 h 3.3207 3.3208 l 3.7213,2.5253 c 2.0467,1.389 4.8792,2.8076 6.2944,3.1525 1.4152,0.345 3.6463,1.4586 4.958,2.4747 1.3116,1.0161 3.169,1.8475 4.1275,1.8475 0.9585,0 2.3002,0.6718 2.9816,1.4928 l 1.239,1.4928 4.0424,1.0886 4.0425,1.0885 3.8674,3.9062 3.8673,3.9062 2.7237,0.6298 2.7237,0.6297 10.75,10.6156 10.75,10.6157 v 2.23 2.2299 l 3.8668,3.7872 3.8669,3.7871 0.6078,2.5731 c 0.3343,1.4152 1.7442,4.2477 3.1332,6.2944 1.3889,2.0467 2.5253,4.5316 2.5253,5.5219 v 1.8006 l 2,1.81 2,1.81 v 5.19 5.19 l 2,1.81 2,1.81 v 11.1579 11.1579 l 3,2.8742 3,2.8742 v 6.3898 6.3898 l -3,3 -3,3 v 12.7353 12.7352 l -2,4.1396 -2,4.1395 v 3.3933 3.3933 l -2,1.81 -2,1.81 v 5.2225 5.2226 l -1.5578,1.2928 c -0.8568,0.7111 -2.2123,2.8594 -3.0122,4.774 -0.8,1.9146 -3.249,5.4278 -5.4423,7.8072 l -3.9877,4.3262 v 1.7622 1.7622 l -17.7396,17.7602 -17.7396,17.7601 h -1.866 -1.8661 l -2.7961,2.3528 -2.7961,2.3527 -5.3482,1.7475 c -2.9416,0.9612 -7.2834,3.0524 -9.6484,4.6473 l -4.3002,2.8997 h -4.4146 -4.4147 l -1.0704,2 -1.0704,2 h -14.2777 -14.2777 l -2.8742,3 -2.8742,3 h -1.6258 -1.6258 z m 441.967,-9.5 c 0.3153,-4.4 0.8399,-17.225 1.1659,-28.5 l 0.5927,-20.5 -1.1165,-5.9537 c -0.6141,-3.2745 -1.5672,-6.4044 -2.1181,-6.9553 l -1.0016,-1.0016 -5.5856,1.1715 -5.5855,1.1716 -10.6591,5.0914 c -5.8626,2.8002 -17.7758,9.3863 -26.4739,14.6357 -8.6981,5.2494 -16.0363,9.3228 -16.307,9.052 -0.2708,-0.2708 6.4373,-6.3592 14.9069,-13.5298 l 15.3993,-13.0374 7.9732,-8.522 c 4.3853,-4.6871 8.8372,-10.1263 9.8932,-12.0871 l 1.92,-3.5652 -1.0622,-1.735 c -2.9016,-4.7395 -20.6086,-11.5855 -46.9463,-18.1508 -14.7272,-3.6711 -17.3701,-4.5536 -16.3791,-5.4693 0.2292,-0.2118 7.3917,0.216 15.9167,0.9506 8.525,0.7346 20.675,1.3093 27,1.2771 l 11.5,-0.059 6.4025,-1.142 6.4026,-1.1421 1.0605,-1.6996 1.0606,-1.6995 -2.2147,-6.8762 c -3.1507,-9.7828 -9.5756,-22.5527 -19.5271,-38.8119 -4.7422,-7.7479 -8.9377,-14.9093 -9.3232,-15.914 l -0.7011,-1.8269 1.1656,0.7204 c 0.6411,0.3962 5.7633,6.2075 11.3827,12.914 16.4156,19.5916 28.5033,31.3732 36.4692,35.5459 l 2.1775,1.1406 1.4877,-0.5709 1.4877,-0.5708 3.4859,-6.6756 c 4.4382,-8.4992 8.604,-21.0286 13.0981,-39.3948 1.9536,-7.9837 4.0141,-15.5879 4.5788,-16.8982 l 1.0269,-2.3825 -0.5111,9 c -0.2812,4.95 -0.7508,18 -1.0437,29 l -0.5326,20 1.2836,6 1.2836,6 2.8901,0.3299 2.8901,0.33 7.6099,-2.696 c 9.875,-3.4985 14.5793,-5.9074 32.1099,-16.4423 7.975,-4.7925 16.075,-9.4876 18,-10.4335 l 3.5,-1.7199 -4.5363,4.3159 c -2.4949,2.3737 -9.8284,8.7698 -16.2966,14.2135 -16.7234,14.0749 -29.6671,28.7617 -29.6671,33.6628 v 1.7171 l 7.75,3.986 c 9.2277,4.7459 21.5592,8.8646 41.2031,13.7617 7.9491,1.9817 15.1491,4.0533 16,4.6036 l 1.5469,1.0005 -6.5,-0.5004 c -3.575,-0.2752 -14.0491,-1.069 -23.2758,-1.764 l -16.7758,-1.2637 -10.2517,1.1456 c -11.8971,1.3295 -13.4137,1.7865 -14.2053,4.2807 l -0.5847,1.8423 2.5588,7.6225 c 3.3301,9.9203 5.6308,14.4276 18.2714,35.7951 5.7874,9.7828 10.286,18.0234 9.9971,18.3124 -0.289,0.2889 -5.1661,-5.0152 -10.8381,-11.787 -16.6919,-19.9286 -29.5558,-32.4608 -37.7098,-36.7376 l -2.3139,-1.2136 -1.5205,1.2618 c -4.6338,3.8458 -12.0813,23.5389 -17.9168,47.377 -2.0197,8.25 -4.0926,15.675 -4.6066,16.5 l -0.9346,1.5 z M 53.606091,966.91182 c 0,-0.6372 1.9603,-4.3655 4.3562,-8.2852 2.3959,-3.9196 12.5712,-20.6266 22.6119,-37.1266 10.0406,-16.5 22.071899,-35.9795 26.736199,-43.2878 l 8.4806,-13.2878 -0.5166,-1.3463 -0.5166,-1.3464 -6.4078,-1.1159 c -3.5243,-0.6137 -8.845899,-1.1607 -11.825799,-1.2155 -2.98,-0.055 -6.5431,-0.4358 -7.9181,-0.8465 l -2.5,-0.7469 6,-1.7148 c 16.145699,-4.6146 19.144299,-5.607 20.959399,-6.9364 l 1.9593,-1.4351 -6.2393,-6.8603 C 90.601391,821.36656 35.606091,758.62557 35.606091,757.87411 c 0,-1.88085 2.7847,-0.43985 22.7873,11.79155 11.392,6.96612 29.2627,17.83516 39.7127,24.15344 10.449999,6.31828 23.669299,14.59508 29.376199,18.39288 l 10.3763,6.90511 1.2761,-0.4897 1.2761,-0.48969 1.0976,-5.11807 c 0.6037,-2.81494 1.131,-7.23342 1.1718,-9.81885 0.041,-2.58543 0.3846,-6.72578 0.764,-9.20078 l 0.6899,-4.5 0.6581,1.02859 c 0.362,0.56573 1.627,4.84073 2.8111,9.5 1.1841,4.65928 2.9938,10.38391 4.0216,12.72141 l 1.8687,4.25 1.3062,-0.0435 c 0.7185,-0.0239 4.2313,-2.74806 7.8063,-6.05362 3.575,-3.30556 17.3,-15.54008 30.5,-27.18782 13.2,-11.64773 30.2266,-26.69861 37.8369,-33.44638 7.6104,-6.74777 14.296,-12.26868 14.857,-12.26868 h 1.02 l -0.5973,1.55662 c -1.1561,3.01267 -51.1409,84.7419 -59.2515,96.8808 l -3.2989,4.9375 1.0104,1.2175 1.0104,1.2174 6.2884,1.0951 c 3.4586,0.6023 8.7265,1.1267 11.7065,1.1654 2.9799,0.039 6.3109,0.419 7.4021,0.8452 l 1.9841,0.7749 -3.4841,1.0985 c -1.9162,0.6042 -5.509,1.5922 -7.984,2.1956 -2.475,0.6033 -7.0875,2.0335 -10.25,3.1782 l -5.75,2.0811 v 1.526 1.526 l 8.2532,8.6021 c 6.4593,6.7324 37.564,41.7496 67.9561,76.5039 6.2645,7.1636 2.6522,6.1531 -13.284,-3.716 -7.3839,-4.5728 -24.4503,-14.9942 -37.9253,-23.1588 -13.475,-8.1645 -29.9424,-18.3731 -36.5942,-22.6858 -12.9137,-8.3726 -13.9701,-8.8069 -14.8164,-6.0912 -1.0212,3.2767 -2.5498,15.7339 -2.5696,20.941 l -0.02,5.191 -0.8751,0.5408 -0.8752,0.5409 -1.2333,-4.7319 c -0.6784,-2.6025 -2.3064,-8.3866 -3.6179,-12.8536 l -2.3846,-8.1218 -1.4615,-1.2129 -1.4616,-1.213 -8.7986,8.3347 c -4.8393,4.5842 -19.5972,17.821 -32.7954,29.4152 -13.198299,11.5942 -28.946799,25.4653 -34.996799,30.8248 -6.05,5.3594 -11.7875,10.1766 -12.75,10.7048 l -1.75,0.9604 z M 1898.5494,501.44743 c -11.9272,-10.8022 -21.7907,-18.30207 -30.0166,-22.82356 l -6.4397,-3.5397 -6.9935,-1.63455 -6.9935,-1.63455 -6.8908,0.66689 -6.8907,0.66688 -8.2977,2.82227 -8.2977,2.82226 -15.7289,8.10332 c -19.8769,10.24029 -21.5767,10.3204 -12.8025,0.60331 10.7071,-11.8577 18.5016,-21.52697 23.3026,-28.90749 l 5.1438,-7.90749 2.0975,-6.90547 2.0975,-6.90547 -0.4491,-9.18704 -0.4492,-9.18704 -2.7657,-8 -2.7657,-8 -7.9017,-15.26569 c -11.1172,-21.4779 -10.8732,-22.23989 3.0983,-9.67593 19.2854,17.34243 30.9924,24.94214 43.2753,28.0925 l 6.2247,1.59652 7,-0.54361 7,-0.54361 8.3394,-2.65183 8.3393,-2.65182 16.4322,-8.42827 c 18.0992,-9.28326 17.3891,-8.99611 17.3891,-7.0316 v 1.39666 l -7.1614,7.85334 c -15.8473,17.37838 -24.1616,29.43831 -27.8561,40.40515 l -1.9825,5.8851 v 7.71345 7.71344 l 2.1574,7.99543 2.1574,7.99543 8.8426,17.56869 c 11.9822,23.80649 11.8881,24.29611 -2.2141,11.52408 z m 5.0411,-0.19743 c -0.01,-0.4125 -2.7115,-6.11246 -6.0064,-12.66657 l -5.9908,-11.91657 -2.9936,-9.34539 -2.9936,-9.34539 v -8.83149 -8.83149 l 2.0111,-5.84536 c 3.7228,-10.82064 10.4808,-21.04549 24.2902,-36.7515 7.8251,-8.89987 7.2388,-9.00297 -7.945,-1.39708 l -12.8563,6.43996 -8.5,2.70053 -8.5,2.70053 -7.1087,0.55356 -7.1086,0.55356 -5.3914,-1.27621 c -11.6442,-2.75636 -21.9081,-8.79806 -37.2373,-21.91927 -4.8653,-4.1645 -9.7353,-8.21078 -10.8222,-8.99173 l -1.9762,-1.41991 1.353,2.91991 c 0.7442,1.60595 3.8829,8.09491 6.9749,14.41991 l 5.6218,11.5 2.7112,8.73728 2.7113,8.73727 -0.3818,10.26273 -0.3818,10.26272 -3.7594,7.91125 c -4.3921,9.24285 -9.5569,16.68188 -20.1198,28.97958 -9.4848,11.04243 -9.4543,11.06294 5.3774,3.62801 6.6958,-3.3565 16.306,-7.51574 21.3559,-9.24276 l 9.1817,-3.14003 10,-0.0189 10,-0.0189 6.914,2.71783 6.914,2.71783 8.086,5.42092 c 4.4473,2.98151 11.911,8.79738 16.586,12.92414 8.1844,7.2246 10.018,8.4865 9.9844,6.8711 z"
         id="path119466" />
      <path
         style="fill:#25212c;fill-opacity:1;stroke-width:139.005;stroke-linecap:round;stroke-linejoin:round;stroke-dasharray:1668.06, 1668.06"
         id="path119483"
         d="m 1447.2174,633.79523 c -40.2702,-2.48983 8.7821,-120.00196 -13.515,-153.95492 -24.4079,-37.16717 -150.2148,-40.2906 -147.2412,-84.59483 2.7165,-40.4728 120.1617,4.26415 153.792,-18.1448 36.8141,-24.53034 42.8087,-149.71687 87.0418,-146.87988 40.4079,2.59164 -7.1246,122.92242 15.488,156.4907 24.7534,36.74608 150.1884,39.7862 147.5309,83.95192 -2.4278,40.34627 -120.1581,-6.24016 -154.0139,16.24534 -37.0609,24.61413 -45,149.61201 -89.0826,146.88647 z"
         onmouseover="thgh"
         transform="rotate(-34.233995,1527.5003,325.28522)" />
      <path
         style="fill:#25212c;fill-opacity:1;stroke-width:139.005;stroke-linecap:round;stroke-linejoin:round;stroke-dasharray:1668.06, 1668.06"
         id="path119485"
         d="m 1739.4625,843.78212 c -40.2174,-2.78982 6.6748,-117.43767 -15.7776,-151.27684 -24.5778,-37.04261 -150.4747,-45.07534 -147.2412,-89.16578 2.9539,-40.27751 124.3913,8.98875 157.9074,-13.57385 36.6889,-24.69853 41.0146,-152.72438 85.189,-149.55796 40.3542,2.89258 -9.0805,121.03864 13.2254,154.59783 24.4175,36.73613 150.4781,43.67132 147.5308,88.06721 -2.6924,40.55653 -121.3242,-8.85676 -154.8498,13.60898 -36.6993,24.59249 -41.9593,150.35434 -85.984,147.30041 z"
         onmouseover="thgh"
         transform="matrix(0.31375868,-0.3431693,0.35159022,0.28991983,1076.0689,866.0629)" />
      <path
         style="fill:#25212c;fill-opacity:1;stroke-width:139.005;stroke-linecap:round;stroke-linejoin:round;stroke-dasharray:1668.06, 1668.06"
         id="path119486"
         d="m 525.95953,1936.0536 c -4.41185,6.6851 -124.28543,-30.6549 -130.36768,-25.4574 -6.04863,5.1688 12.4652,125.4216 5.12231,128.3703 -7.3837,2.9651 -77.52268,-97.6421 -85.47391,-97.1474 -7.90728,0.492 -68.00214,112.5574 -75.67623,110.6341 -7.71674,-1.934 -2.3535,-130.7033 -9.04405,-135.0742 -6.65357,-4.3467 -120.87981,51.5639 -125.85969,45.3223 -5.007558,-6.2763 72.73044,-105.5586 69.81838,-112.9817 -2.89596,-7.3821 -129.133918,-28.7948 -129.499381,-36.7097 -0.367494,-7.9589 120.870681,-42.1162 122.783441,-49.9187 1.90219,-7.7594 -88.84528,-98.5353 -84.639764,-105.2973 4.228888,-6.7995 124.268804,35.901 130.367684,30.6982 6.06516,-5.1739 -13.55568,-128.8384 -6.18685,-131.7276 7.40978,-2.9053 83.7902,100.4942 91.77386,100.052 7.93953,-0.4398 61.70308,-116.0593 69.37089,-113.9915 7.71042,2.0793 8.61632,131.4391 15.44108,135.6466 6.78704,4.1843 120.74564,-56.6315 125.85969,-50.563 5.14248,6.1022 -72.85695,108.8237 -69.90468,116.2194 2.93594,7.3548 128.93904,28.8039 129.49938,36.7097 0.56346,7.9497 -120.71118,47.4496 -122.78344,55.1595 -2.06082,7.6672 83.78644,93.4083 79.39896,100.0564 z"
         transform="matrix(0.88302539,0.06044712,-0.05782067,0.84465758,109.65886,221.66924)" />
      <path
         style="fill:#25212c;fill-opacity:1;stroke-width:320.133;stroke-linecap:round;stroke-linejoin:round;stroke-dasharray:3841.59, 3841.59"
         d="m 761.80924,1716.3333 c -6.67979,-7.2851 -7.89895,-21.4918 -2.81633,-32.8181 3.37546,-7.5221 6.17096,-9.9778 15.23716,-13.3852 6.10679,-2.2952 14.21235,-5.6562 18.01235,-7.4689 3.8,-1.8127 14.45542,-3.973 23.67871,-4.8008 9.22329,-0.8277 17.31627,-2.3894 17.9844,-3.4705 0.66814,-1.0811 5.69037,-1.9656 11.16052,-1.9656 5.83864,0 11.08027,-1.367 12.69314,-3.3104 1.7153,-2.0668 9.62683,-3.9105 21.05987,-4.9078 10.07184,-0.8786 18.86902,-2.498 19.54928,-3.5987 0.68026,-1.1007 6.94969,-2.0012 13.93208,-2.0012 8.21396,0 13.91467,-1.2195 16.1498,-3.4546 1.9,-1.9 7.02185,-3.4545 11.38189,-3.4545 4.36005,0 9.72693,-0.9972 11.92641,-2.2159 2.19948,-1.2187 13.84451,-3.3173 25.87784,-4.6635 38.57694,-4.3159 47.72694,-5.8465 50.95784,-8.5241 1.7399,-1.4419 15.3676,-3.3721 30.2838,-4.2894 14.9163,-0.9174 27.6729,-2.5617 28.3481,-3.6542 0.6751,-1.0924 6.7395,-1.9863 13.4763,-1.9863 7.6398,0 13.2472,-1.203 14.9021,-3.1971 1.9208,-2.3144 12.1791,-3.6584 37.1565,-4.868 18.9767,-0.9191 35.0708,-2.5895 35.7646,-3.712 0.6938,-1.1226 9.9482,-2.041 20.5653,-2.041 10.6172,0 19.9444,-1.0364 20.7273,-2.3031 0.8011,-1.2963 11.8847,-2.303 25.3548,-2.303 18.1352,0 24.3775,-0.7831 25.7732,-3.2334 1.4602,-2.5637 13.5292,-3.5758 58.2659,-4.886 31.0334,-0.9089 57.5713,-2.5667 58.9732,-3.6839 1.4019,-1.1173 20.8481,-2.4308 43.2136,-2.9191 25.9929,-0.5673 41.8156,-1.8428 43.8545,-3.5349 4.3116,-3.5783 379.3581,-3.916 476.9284,-0.4294 39.2667,1.4031 92.1212,3.0815 117.4546,3.7296 25.3333,0.6481 48.1333,2.1561 50.6666,3.351 2.5334,1.1949 13.6306,2.4815 24.6606,2.859 l 20.0544,0.6865 10.5252,10.3307 c 17.0832,16.7675 21.9113,28.9956 21.9113,55.4946 0,13.6522 -1.1359,24.4286 -2.9261,27.7599 -6.7953,12.6449 -16.3323,25.0208 -19.2812,25.0208 -1.7441,0 -4.9458,2.0728 -7.1149,4.6061 -2.1691,2.5333 -6.2433,4.6061 -9.0537,4.6061 -2.8104,0 -5.7503,1.0363 -6.5331,2.303 -1.8753,3.0342 -51.0945,3.0342 -52.9697,0 -0.7829,-1.2667 -10.6283,-2.303 -21.8788,-2.303 -11.2505,0 -21.096,-1.0364 -21.8788,-2.3031 -0.7829,-1.2666 -8.5556,-2.303 -17.2727,-2.303 -8.7172,0 -16.4899,-1.0364 -17.2728,-2.303 -0.7828,-1.2667 -10.1101,-2.3031 -20.7272,-2.3031 -10.6172,0 -19.9445,-1.0363 -20.7273,-2.303 -0.7829,-1.2666 -9.0738,-2.303 -18.4243,-2.303 -9.3504,0 -17.6414,-1.0364 -18.4242,-2.303 -0.7852,-1.2706 -11.1099,-2.3031 -23.0303,-2.3031 -11.9204,0 -22.2451,-1.0324 -23.0303,-2.303 -0.801,-1.2961 -11.8776,-2.303 -25.3333,-2.303 -13.4558,0 -24.5324,-1.007 -25.3334,-2.3031 -0.8297,-1.3425 -13.7968,-2.303 -31.0909,-2.303 -17.2941,0 -30.2612,-0.9605 -31.0909,-2.303 -0.8197,-1.3263 -13.0291,-2.3031 -28.7879,-2.3031 -15.7587,0 -27.9682,-0.9767 -28.7879,-2.303 -0.8675,-1.4038 -18.4028,-2.303 -44.909,-2.303 -26.5063,0 -44.0415,-0.8993 -44.9091,-2.303 -0.9049,-1.4642 -30.6857,-2.3031 -81.7576,-2.3031 -51.0719,0 -80.8527,-0.8389 -81.7576,-2.303 -1.8815,-3.0444 -96.1538,-3.1068 -99.1949,-0.066 -1.2992,1.2992 -32.1539,2.7234 -73.5818,3.3964 -99.7634,1.6207 -144.6789,3.4508 -147.2293,5.9987 -1.2034,1.2022 -13.8377,2.1857 -28.0762,2.1857 -14.7747,0 -26.4994,0.9887 -27.3117,2.3031 -0.7913,1.2803 -11.3856,2.303 -23.8572,2.303 -12.3385,0 -23.4183,0.9277 -24.6216,2.0615 -2.317,2.1832 -18.7094,3.9264 -59.1879,6.2941 -13.61666,0.7965 -24.75757,2.3514 -24.75757,3.4554 0,1.1039 -7.25454,2.0072 -16.12121,2.0072 -9.21212,0 -16.12121,0.987 -16.12121,2.303 0,1.297 -6.47995,2.303 -14.83378,2.303 -8.15858,0 -15.47429,1.0364 -16.25713,2.3031 -0.78284,1.2666 -8.03739,2.303 -16.12121,2.303 -8.08382,0 -15.33837,1.0364 -16.12121,2.303 -0.78285,1.2667 -7.58037,2.3031 -15.10562,2.3031 -7.58616,0 -13.68226,1.0261 -13.68226,2.303 0,1.2667 -5.18182,2.303 -11.51515,2.303 -6.33334,0 -11.51516,1.0364 -11.51516,2.3031 0,1.2666 -3.5661,2.303 -7.92468,2.303 -4.35858,0 -8.5652,1.0364 -9.34804,2.303 -0.78322,1.2673 -11.02141,2.3031 -22.76477,2.3031 -19.18872,0 -21.82068,-0.5227 -26.09266,-5.1819 z"
         id="path119488" />
    </g>
  </g>
</svg>
