<?xml version="1.0" encoding="UTF-8" standalone="no"?>
<!-- Created with Inkscape (http://www.inkscape.org/) -->

<svg
   width="720"
   height="720"
   viewBox="0 0 720 720"
   version="1.1"
   id="svg1"
   xml:space="preserve"
   inkscape:export-filename="userbuslinnes.svg"
   inkscape:export-xdpi="96"
   inkscape:export-ydpi="96"
   inkscape:version="1.4.2 (f4327f4, 2025-05-13)"
   sodipodi:docname="drawing.svg"
   xmlns:inkscape="http://www.inkscape.org/namespaces/inkscape"
   xmlns:sodipodi="http://sodipodi.sourceforge.net/DTD/sodipodi-0.dtd"
   xmlns="http://www.w3.org/2000/svg"
   xmlns:svg="http://www.w3.org/2000/svg"><sodipodi:namedview
     id="namedview1"
     pagecolor="#ffffff"
     bordercolor="#000000"
     borderopacity="0.25"
     inkscape:showpageshadow="2"
     inkscape:pageopacity="0.0"
     inkscape:pagecheckerboard="0"
     inkscape:deskcolor="#d1d1d1"
     inkscape:document-units="px"
     inkscape:zoom="0.71805556"
     inkscape:cx="298.02708"
     inkscape:cy="344.68085"
     inkscape:window-width="1366"
     inkscape:window-height="697"
     inkscape:window-x="-8"
     inkscape:window-y="-8"
     inkscape:window-maximized="1"
     inkscape:current-layer="Glyph" /><defs
     id="defs1" /><g
     inkscape:label="Layer 1"
     inkscape:groupmode="layer"
     id="layer1"><path
       style="fill:#1a1a1a;fill-opacity:0;stroke:#000000;stroke-width:9.10866;stroke-linecap:butt;stroke-linejoin:round;stroke-dasharray:none;stroke-dashoffset:0;stroke-opacity:1;paint-order:stroke markers fill"
       id="path8"
       sodipodi:type="arc"
       sodipodi:cx="349.58704"
       sodipodi:cy="528.81195"
       sodipodi:rx="266.86783"
       sodipodi:ry="44.313847"
       sodipodi:start="0"
       sodipodi:end="6.2829938"
       sodipodi:arc-type="arc"
       d="M 616.45486,528.81195 A 266.86783,44.313847 0 0 1 349.59981,573.1258 266.86783,44.313847 0 0 1 82.719209,528.81619 266.86783,44.313847 0 0 1 349.54871,484.4981 266.86783,44.313847 0 0 1 616.45486,528.80346"
       sodipodi:open="true" /><path
       style="fill:#1a1a1a;fill-opacity:0;stroke:#000000;stroke-width:9.10866;stroke-linecap:butt;stroke-linejoin:round;stroke-dasharray:none;stroke-dashoffset:0;stroke-opacity:1;paint-order:stroke markers fill"
       id="path9"
       sodipodi:type="arc"
       sodipodi:cx="341.70901"
       sodipodi:cy="446.09277"
       sodipodi:rx="266.86783"
       sodipodi:ry="44.313847"
       sodipodi:start="0"
       sodipodi:end="6.2830867"
       sodipodi:open="true"
       sodipodi:arc-type="arc"
       d="M 608.57684,446.09277 A 266.86783,44.313847 0 0 1 341.71559,490.40662 266.86783,44.313847 0 0 1 74.841187,446.09496 266.86783,44.313847 0 0 1 341.68928,401.77893 266.86783,44.313847 0 0 1 608.57684,446.0884" /><path
       d="m 294.81817,344.80025 c -40.37324,-23.35381 -59.65877,-69.89896 -47.13122,-113.74737 12.52745,-43.84811 53.78499,-74.20893 100.82895,-74.20893 47.04396,0 88.3015,30.36082 100.82895,74.20893 12.52755,43.84841 -6.75798,90.39356 -47.13122,113.74737 71.92316,22.53934 120.63975,87.32414 120.64559,160.43815 0,33.92198 -79.10539,56.19943 -174.34332,56.19943 -96.37698,0 -174.34333,-21.67051 -174.34333,-56.19943 0.006,-73.11401 48.72243,-137.89881 120.6456,-160.43815 z m 101.737,-154.16186 c 44.93404,0 33.32092,110.77584 33.32092,67.32252 0,-43.45333 -36.42615,-78.67922 -81.36019,-78.67922 -44.93404,0 -81.36019,35.22589 -81.36019,78.67922 0,43.45332 84.46542,-67.32252 129.39946,-67.32252 z M 273.02562,390.12135 c 81.36021,0 226.58784,129.18937 226.58784,115.11705 0,-80.6991 -67.64868,-146.11849 -151.09757,-146.11849 -83.44888,0 -151.09756,65.41939 -151.09756,146.11849 0,14.61185 -6.79898,-115.11705 75.60729,-115.11705 z"
       fill="#979797"
       id="path1"
       style="fill:#8059d4;fill-opacity:1;stroke:none;stroke-width:22.8595;stroke-opacity:1"
       sodipodi:nodetypes="csssccsccssssssssss" /><g
       id="Glyph"
       transform="matrix(1.9778952,0.87484607,-0.87887131,1.923575,518.39158,187.12778)"><path
         d="m 32,14 c -7.031,0 -11.229,4.395 -11.229,11.756 0,4.189 5.566,13.867 11.227,21.594 C 37.625,39.597 43.229,30.039 43.229,25.756 43.229,18.395 39.031,14 32,14 Z m -0.012,16.793 c -2.724,0 -4.932,-2.208 -4.932,-4.932 0,-2.724 2.208,-4.932 4.932,-4.932 2.724,0 4.932,2.208 4.932,4.932 0,2.724 -2.208,4.932 -4.932,4.932 z"
         id="path1-4" /><path
         d="M 32,0 C 14.327,0 0,14.327 0,32 0,49.673 14.327,64 32,64 49.673,64 64,49.673 64,32 64,14.327 49.673,0 32,0 Z M 33.874,51.54 32,54 30.137,51.54 C 28.766,49.748 16.771,33.734 16.771,25.756 16.771,16.185 22.745,10 32,10 c 9.255,0 15.229,6.185 15.229,15.756 0,7.966 -11.996,23.98 -13.355,25.784 z"
         id="path2" /><path
         style="fill:#362163;fill-opacity:1;stroke:#362163;stroke-width:5.26356;stroke-linecap:butt;stroke-linejoin:round;stroke-dasharray:none;stroke-dashoffset:0;stroke-opacity:1;paint-order:stroke markers fill"
         d="m 538.53046,294.89362 c -4.35267,-26.75055 -3.51934,-38.05385 3.41287,-46.29231 7.57845,-9.00648 16.04284,-10.5043 27.9729,-4.94997 9.9495,4.63224 13.22675,10.0192 12.54617,20.62269 -0.60954,9.49666 -2.81651,12.92887 -14.38315,22.36823 -7.39698,6.03656 -25.33448,17.65174 -27.25984,17.65174 -0.41766,0 -1.44769,-4.23017 -2.28895,-9.40038 z m 26.08947,-20.49008 c 6.4344,-3.32736 7.62563,-10.42015 2.78383,-16.5755 -3.68255,-4.6816 -12.35182,-5.14304 -16.61072,-0.88413 -5.07616,5.07615 -3.30491,14.17701 3.48162,17.88896 3.7563,2.05453 5.69782,1.97396 10.34527,-0.42933 z"
         id="path22"
         transform="matrix(0.42059082,-0.19128561,0.19216574,0.43246796,-253.99029,18.234082)" /><path
         style="fill:#362163;fill-opacity:1;stroke:#362163;stroke-width:5.26356;stroke-linecap:butt;stroke-linejoin:round;stroke-dasharray:none;stroke-dashoffset:0;stroke-opacity:1;paint-order:stroke markers fill"
         d="m 148.98793,480.53374 c -38.78218,-6.85035 -61.494555,-14.42191 -71.223011,-23.74341 -4.898687,-4.69376 -6.043449,-6.72358 -6.043449,-10.71583 0,-6.74431 3.737891,-10.95869 14.911984,-16.81288 11.224155,-5.88043 28.080126,-10.94105 51.935216,-15.59236 18.36788,-3.58141 57.37592,-9.10446 64.30269,-9.10446 h 4.09462 l -2.29766,3.88962 c -2.18642,3.70132 -3.06024,3.9706 -18.04933,5.56226 -59.29435,6.29631 -107.93427,20.94201 -107.93427,32.4995 0,8.66573 29.92231,19.3765 75.78992,27.1292 11.53638,1.94991 21.11245,3.68252 21.28016,3.85024 0.16772,0.16771 -0.0566,1.68762 -0.49858,3.37758 -1.00539,3.84464 -2.70499,3.82268 -26.26829,-0.33946 z"
         id="path23"
         transform="matrix(0.42059082,-0.19128561,0.19216574,0.43246796,-253.99029,18.234082)" /><path
         style="fill:#362163;fill-opacity:1;stroke:#362163;stroke-width:5.26356;stroke-linecap:butt;stroke-linejoin:round;stroke-dasharray:none;stroke-dashoffset:0;stroke-opacity:1;paint-order:stroke markers fill"
         d="M 302.20503,576.31771 C 195.82955,573.23757 105.80538,558.10969 85.744375,539.94313 71.632701,527.16408 79.94078,515.63024 110.65433,505.36145 c 12.97132,-4.33684 40.76864,-10.59605 55.41917,-12.4789 7.19245,-0.92435 7.31141,-0.88051 7.31141,2.69487 0,4.05507 0.9879,3.69055 -19.4971,7.19412 -40.43488,6.91561 -66.847191,17.40174 -66.847191,26.53946 0,11.65104 47.420191,24.90523 116.286271,32.50262 48.74858,5.37801 71.85955,6.38754 146.22824,6.38754 74.36868,0 97.47965,-1.00953 146.22824,-6.38754 55.06629,-6.07498 93.98882,-14.92308 109.82494,-24.96604 10.05869,-6.37903 8.33511,-12.29366 -5.62361,-19.29788 -10.7042,-5.37116 -46.35882,-14.25579 -70.42957,-17.55005 -6.19663,-0.84805 -6.61509,-1.1659 -6.61509,-5.02447 0,-3.5512 0.43204,-4.0224 3.13346,-3.41744 1.72341,0.38595 9.08704,1.68516 16.36364,2.88713 40.13274,6.62928 68.95626,17.18105 75.28516,27.56053 4.18202,6.85857 3.46281,10.43283 -3.42781,17.03521 -26.14731,25.05352 -164.30949,41.55611 -312.08946,37.2771 z"
         id="path24"
         transform="matrix(0.42059082,-0.19128561,0.19216574,0.43246796,-253.99029,18.234082)" /><path
         style="fill:#362163;fill-opacity:1;stroke:#362163;stroke-width:5.26356;stroke-linecap:butt;stroke-linejoin:round;stroke-dasharray:none;stroke-dashoffset:0;stroke-opacity:1;paint-order:stroke markers fill"
         d="m 521.54739,478.37524 c 0,-3.50482 0.54948,-4.17795 3.41052,-4.17795 5.48992,0 36.20886,-6.56248 49.29927,-10.53178 13.98934,-4.24189 27.60175,-11.07019 29.63226,-14.86423 3.84743,-7.18898 -11.63312,-16.04622 -40.56255,-23.20797 -17.69755,-4.38119 -42.35934,-8.90458 -58.1875,-10.67258 -7.12719,-0.7961 -9.281,-1.65265 -11.62223,-4.62207 -3.98607,-5.0556 -2.50328,-5.16075 22.14391,-1.57028 50.33735,7.33288 81.429,16.86541 91.55072,28.06894 14.82159,16.40572 -5.7375,30.23564 -61.85876,41.61184 -11.17821,2.26591 -21.10738,4.12527 -22.06483,4.13193 -1.00849,0.007 -1.74081,-1.74547 -1.74081,-4.16585 z"
         id="path25"
         transform="matrix(0.42059082,-0.19128561,0.19216574,0.43246796,-253.99029,18.234082)" /><path
         style="fill:#362163;fill-opacity:1;stroke:#362163;stroke-width:5.26356;stroke-linecap:butt;stroke-linejoin:round;stroke-dasharray:none;stroke-dashoffset:0;stroke-opacity:1;paint-order:stroke markers fill"
         d="m 437.29207,408.64588 c -6.89362,-0.57653 -32.85015,-1.52025 -57.68119,-2.09716 l -45.14734,-1.04892 -9.16601,-4.03695 -9.166,-4.03695 45.95744,0.79212 c 25.2766,0.43567 56.29788,1.45569 68.93618,2.2667 22.69601,1.45642 23.02979,1.52485 27.12989,5.56262 l 4.15117,4.08806 -6.24015,-0.22064 c -3.43208,-0.12135 -11.88037,-0.69235 -18.77399,-1.26888 z"
         id="path26"
         transform="matrix(0.42059082,-0.19128561,0.19216574,0.43246796,-253.99029,18.234082)" /><path
         style="fill:#362163;fill-opacity:1;stroke:#362163;stroke-width:5.26356;stroke-linecap:butt;stroke-linejoin:round;stroke-dasharray:none;stroke-dashoffset:0;stroke-opacity:1;paint-order:stroke markers fill"
         d="m 480.46422,493.77979 c -2.29788,-0.56217 -7.71487,-3.51208 -12.03778,-6.55535 l -7.85982,-5.53321 17.56565,-1.58467 c 9.66111,-0.87156 17.72803,-1.42227 17.92651,-1.2238 0.19847,0.19847 0.53104,1.84384 0.73905,3.65636 0.28492,2.48277 -0.48044,3.54354 -3.10344,4.30127 l -3.48162,1.00576 3.82978,0.13882 c 3.11966,0.11308 3.82979,0.7844 3.82979,3.62045 0,3.24509 -0.44941,3.47194 -6.61509,3.33907 -3.63829,-0.0784 -8.49516,-0.60252 -10.79303,-1.1647 z"
         id="path27"
         transform="matrix(0.42059082,-0.19128561,0.19216574,0.43246796,-253.99029,18.234082)" /><path
         style="fill:#362163;fill-opacity:1;stroke:#362163;stroke-width:5.26356;stroke-linecap:butt;stroke-linejoin:round;stroke-dasharray:none;stroke-dashoffset:0;stroke-opacity:1;paint-order:stroke markers fill"
         d="m 192.14931,244.19074 c -10.47403,-14.04959 -20.06536,-26.34613 -21.31408,-27.32565 -2.75684,-2.16252 -3.17051,-2.08181 -38.40806,7.4945 -15.25017,4.14445 -28.00283,7.26011 -28.33925,6.92369 -0.33642,-0.33643 4.62067,-4.68802 11.01577,-9.67022 6.3951,-4.98219 17.52083,-13.64152 24.72385,-19.24295 7.20302,-5.60143 13.74705,-11.22875 14.54227,-12.50515 1.08505,-1.74157 -0.57379,-9.95839 -6.64718,-32.926 -4.45117,-16.83291 -7.84674,-31.34419 -7.54571,-32.24729 0.30104,-0.90311 6.79927,6.67787 14.44053,16.84661 21.31232,28.36178 26.80016,34.63224 30.3076,34.62973 1.69548,-0.001 15.59554,-3.44802 30.88904,-7.65957 28.7051,-7.90488 32.1332,-8.60805 30.70575,-6.2984 -0.46193,0.74743 -11.76108,9.5965 -25.1092,19.66459 -13.34812,10.06809 -24.63925,19.47121 -25.09141,20.89583 -0.45215,1.42461 3.02612,16.75788 7.72949,34.07394 4.70337,17.31605 8.23494,31.80037 7.84793,32.18739 -0.38701,0.387 -9.27331,-10.79147 -19.74734,-24.84105 z"
         id="path28"
         transform="matrix(0.42059082,-0.19128561,0.19216574,0.43246796,-253.99029,18.234082)" /></g><path
       sodipodi:type="star"
       style="fill:#666666;fill-opacity:0;stroke:#8059d4;stroke-width:3.77953;stroke-linecap:butt;stroke-linejoin:round;stroke-dasharray:none;stroke-dashoffset:0;stroke-opacity:1;paint-order:stroke markers fill"
       id="path10"
       inkscape:flatsided="false"
       sodipodi:sides="4"
       sodipodi:cx="175.47389"
       sodipodi:cy="196.36365"
       sodipodi:r1="88.44149"
       sodipodi:r2="23.450891"
       sodipodi:arg1="1.1141909"
       sodipodi:arg2="1.888348"
       inkscape:rounded="0.06"
       inkscape:randomized="0.01"
       d="m 215.24727,276.30949 c -3.96422,1.96382 -42.82119,-56.74732 -47.00105,-58.15824 -4.20528,-1.4195 -69.294752,20.41047 -71.351827,16.49171 -2.044643,-3.89508 54.286537,-42.15884 55.671437,-46.33295 1.39332,-4.19948 -19.97978,-69.64427 -16.01043,-71.64886 3.94536,-1.99247 42.86032,55.6484 47.02838,57.10853 4.1934,1.46901 69.3277,-20.46668 71.35362,-16.53476 2.01367,3.90816 -54.91492,42.03653 -56.37241,46.19414 -1.46634,4.18288 20.6706,70.90467 16.68228,72.88043 z"
       inkscape:transform-center-x="-0.5022027"
       inkscape:transform-center-y="-0.094274329" /><path
       sodipodi:type="star"
       style="fill:#8059d4;fill-opacity:1;stroke:#8059d4;stroke-width:3.77953;stroke-linecap:butt;stroke-linejoin:round;stroke-dasharray:none;stroke-dashoffset:0;stroke-opacity:1;paint-order:stroke markers fill"
       id="path11"
       inkscape:flatsided="false"
       sodipodi:sides="4"
       sodipodi:cx="165.72534"
       sodipodi:cy="335.62863"
       sodipodi:r1="88.44149"
       sodipodi:r2="23.450891"
       sodipodi:arg1="1.1141909"
       sodipodi:arg2="1.888348"
       inkscape:rounded="0.06"
       inkscape:randomized="0.01"
       d="m 204.93684,415.49567 c -3.94211,1.98934 -42.94558,-56.34557 -47.12371,-57.7291 -4.20354,-1.39195 -69.251775,21.28322 -71.256471,17.30814 -1.99258,-3.95107 55.973671,-42.93522 57.344911,-47.14938 1.37959,-4.23978 -21.72773,-69.62614 -17.77926,-71.64886 3.9246,-2.01049 42.9513,56.53375 47.12373,57.92496 4.19781,1.39967 70.71593,-20.87887 72.66598,-16.86832 1.93827,3.9863 -56.31452,41.4004 -57.78194,45.55846 -1.47634,4.18334 20.77284,70.60267 16.80676,72.6041 z"
       inkscape:transform-center-x="-0.27489116"
       inkscape:transform-center-y="-0.035209897"
       transform="matrix(0.51671321,-0.07134811,0.07016812,0.52540254,34.490177,125.9875)" /><path
       sodipodi:type="star"
       style="fill:#8059d4;fill-opacity:1;stroke:#000000;stroke-width:3.77953;stroke-linecap:butt;stroke-linejoin:round;stroke-dasharray:none;stroke-dashoffset:0;stroke-opacity:1;paint-order:stroke markers fill"
       id="path12"
       inkscape:flatsided="false"
       sodipodi:sides="4"
       sodipodi:cx="165.72534"
       sodipodi:cy="335.62863"
       sodipodi:r1="88.44149"
       sodipodi:r2="23.450891"
       sodipodi:arg1="1.1141909"
       sodipodi:arg2="1.888348"
       inkscape:rounded="0.06"
       inkscape:randomized="0.01"
       d="m 204.93684,415.49567 c -3.94211,1.98934 -42.94558,-56.34557 -47.12371,-57.7291 -4.20354,-1.39195 -69.251775,21.28322 -71.256471,17.30814 -1.99258,-3.95107 55.973671,-42.93522 57.344911,-47.14938 1.37959,-4.23978 -21.72773,-69.62614 -17.77926,-71.64886 3.9246,-2.01049 42.9513,56.53375 47.12373,57.92496 4.19781,1.39967 70.71593,-20.87887 72.66598,-16.86832 1.93827,3.9863 -56.31452,41.4004 -57.78194,45.55846 -1.47634,4.18334 20.77284,70.60267 16.80676,72.6041 z"
       inkscape:transform-center-x="-0.18273584"
       inkscape:transform-center-y="-0.023583443"
       transform="matrix(0.34349193,-0.04779118,0.04664518,0.35193094,166.59014,11.147795)" /><path
       style="fill:#8059d4;fill-opacity:1;stroke:#8059d4;stroke-width:5.26356;stroke-linecap:butt;stroke-linejoin:round;stroke-dasharray:none;stroke-dashoffset:0;stroke-opacity:1;paint-order:stroke markers fill"
       d="m 536.43665,341.19814 c -40.81338,-11.2199 -62.44904,-55.28585 -45.09072,-91.83753 25.93121,-54.60375 103.94397,-51.56457 126.36418,4.92284 3.72109,9.37524 4.98848,25.85464 2.79862,36.38971 -4.86386,23.39942 -23.91994,43.10569 -48.73055,50.39324 -9.01636,2.64835 -25.95744,2.7115 -35.34153,0.13174 z m 9.00926,-27.35954 c 39.59927,-22.37148 52.20837,-38.22527 46.96465,-59.04999 -2.32312,-9.22595 -11.83404,-18.79949 -22.04629,-22.19145 -16.19821,-5.38019 -31.06057,-0.20072 -39.73171,13.84632 -4.12831,6.68776 -4.20809,7.16491 -4.06767,24.3283 0.15457,18.89246 5.16441,48.84137 8.17017,48.84137 0.2692,0 5.08908,-2.59854 10.71085,-5.77455 z"
       id="path16" /></g></svg>
