<?xml version="1.0" encoding="UTF-8" standalone="no"?>
<!-- Created with Inkscape (http://www.inkscape.org/) -->

<svg
   width="720"
   height="720"
   viewBox="0 0 720 720"
   version="1.1"
   id="svg1"
   xml:space="preserve"
   xmlns="http://www.w3.org/2000/svg"
   xmlns:svg="http://www.w3.org/2000/svg"><defs
     id="defs1"><linearGradient
       id="swatch13"><stop
         style="stop-color:#362163;stop-opacity:1;"
         offset="0"
         id="stop14" /></linearGradient></defs><g
     id="layer1"><g
       id="g1"
       style="display:inline;mix-blend-mode:normal;fill:#ef5053;fill-opacity:1"
       transform="matrix(0.34594107,0,0,0.34594107,7.5317554,6.8474865)"><path
         d="m 702.77148,626.03516 c 16.93155,-2.99403 609.52552,-2.99403 626.45702,0 34.9515,6.18052 55.9312,16.27202 62.0547,29.85156 2.9571,6.55767 1.632,10.74505 -5.7363,18.13867 -10.7118,10.74858 -28.8366,17.74033 -58.8809,22.7168 -16.0093,2.65173 -603.7401,2.57791 -621.33202,-0.0781 -14.92963,-2.25408 -21.64963,-3.8815 -33.49804,-8.10937 -12.22212,-4.36124 -17.60767,-7.47544 -24.81836,-14.35352 -7.7753,-7.41664 -9.29599,-12.45486 -5.81641,-19.27539 6.70963,-13.15198 27.35792,-22.8408 61.57031,-28.89062 z"
         style="display:inline;fill:#ef5053;fill-opacity:1"
         id="path24" /><path
         d="m 728.05078,1808 h 295.18552 295.1856 l 0.75,19.666 c 1.1789,30.9 3.7196,50.8069 8.2734,64.8203 3.4603,10.6484 14.8143,32.0057 20.4141,38.4004 2.7839,3.179 5.7662,7.1147 6.6289,8.7461 1.9931,3.7693 17.5572,16.3246 31.3379,25.2793 l 10.6367,6.9102 -5.2324,2.2734 c -2.8771,1.2504 -6.4298,2.7328 -7.8965,3.293 -7.8567,3.0009 -17.9593,6.6195 -22.668,8.1211 -2.9334,0.9355 -5.903,2.1781 -6.5996,2.7617 -0.6967,0.5836 -2.6105,1.0625 -4.2539,1.0625 -1.6434,0 -3.3593,0.5986 -3.8125,1.332 -0.4532,0.7333 -2.2532,1.334 -4,1.334 -1.7468,0 -3.5033,0.5309 -3.9043,1.1797 -0.401,0.6488 -2.3865,1.4838 -4.4121,1.8555 -2.0257,0.3717 -7.8843,1.991 -13.0176,3.5976 -5.1334,1.6066 -11.132,3.4369 -13.332,4.0684 -8.9719,2.5754 -14.9111,4.2031 -19.334,5.2988 -2.5667,0.6358 -7.0667,1.805 -10,2.5977 -2.9333,0.7927 -8.034,2.0617 -11.334,2.8203 -3.3,0.7586 -8.3986,1.9831 -11.332,2.7207 -5.0289,1.2645 -7.4238,1.8124 -23,5.2656 -3.4833,0.7722 -9.484,1.9716 -13.334,2.666 -3.85,0.6945 -10.4493,1.8824 -14.666,2.6406 -34.9986,6.2933 -66.4567,10.3359 -104.334,13.4063 -20.1494,1.6334 -129.69986,3.0736 -131.05078,1.7226 -0.52706,-0.527 -9.50539,-1.4648 -19.95313,-2.082 -24.61482,-1.454 -45.36209,-3.6456 -72.99609,-7.7129 -19.83869,-2.92 -26.99627,-4.1582 -46,-7.959 -3.66667,-0.7333 -9.66732,-1.9252 -13.33398,-2.6484 -13.96262,-2.7539 -27.56618,-5.884 -41.33204,-9.5078 -5.86666,-1.5444 -12.76731,-3.3208 -15.33398,-3.9473 -4.43479,-1.0826 -9.28035,-2.4181 -19,-5.2402 -2.38333,-0.6919 -6.43333,-1.8291 -9,-2.5274 -8.91482,-2.4254 -19.34636,-5.8005 -21.64844,-7.0039 -1.27339,-0.6657 -3.48853,-1.2109 -4.92187,-1.2109 -1.43333,0 -2.97647,-0.6007 -3.42969,-1.334 -0.45322,-0.7334 -2.25322,-1.332 -4,-1.332 -1.74678,0 -3.54678,-0.6007 -4,-1.334 -0.45322,-0.7333 -1.99636,-1.334 -3.42969,-1.334 -1.43334,0 -3.64848,-0.5518 -4.92187,-1.2265 -1.27338,-0.6747 -5.91446,-2.5322 -10.31446,-4.129 -21.67937,-7.8675 -22.25553,-8.4564 -13.00195,-13.291 7.15088,-3.736 33.23984,-28.3743 39.24024,-37.0586 5.48644,-7.9404 14.82668,-27.2742 18.17773,-37.6269 3.8884,-12.0127 5.80091,-28.6465 6.43555,-56 0.29776,-12.8333 0.8389,-24.684 1.20312,-26.334 z"
         style="display:inline;fill:#ef5053;fill-opacity:1"
         id="path23" /><path
         d="M 1023.334,6.2050781 C 966.68057,6.246924 942.7977,7.5611828 896,13.216797 c -13.50317,1.63189 -39.3563,5.635154 -51.33398,7.949219 -3.66667,0.708393 -9.96667,1.911953 -14,2.673828 -4.03334,0.761874 -10.03204,1.955616 -13.33204,2.654297 -3.3,0.698682 -9.0013,1.893647 -12.66796,2.654296 -3.66667,0.76065 -9.21537,2.012674 -12.33204,2.783204 -8.03686,1.986943 -15.53664,3.865031 -21.33398,5.341796 -2.75,0.700512 -6.8,1.646836 -9,2.101563 -2.2,0.454727 -5.19935,1.325453 -6.66602,1.935547 C 753.86732,41.92064 749.66667,43.130664 746,44 c -3.66667,0.869336 -7.86732,2.056927 -9.33398,2.638672 -1.46667,0.581744 -5.36602,1.818631 -8.66602,2.75 -12.06744,3.405832 -56.55541,18.3864 -64,21.550781 -1.83333,0.779272 -4.83268,2.00774 -6.66602,2.728516 -1.83333,0.720775 -4.37505,1.840507 -5.64843,2.488281 -1.27338,0.647774 -2.93036,1.177734 -3.68164,1.177734 -0.75128,0 -4.21021,1.259078 -7.68555,2.798828 -3.47534,1.539751 -7.51771,3.277803 -8.98438,3.863282 -26.79931,10.698025 -85.405,39.423996 -108.39257,53.128906 -3.88227,2.31456 -7.37417,4.20898 -7.75977,4.20898 -0.3856,0 -3.31803,1.8 -6.51562,4 -3.19759,2.2 -6.19694,4 -6.66602,4 -0.46908,0 -3.46843,1.8 -6.66602,4 -3.19759,2.2 -6.1821,4 -6.63086,4 -2.46271,0 -57.66368,38.23131 -84.0371,58.20313 -44.99669,34.07468 -56.61366,44.15379 -97.13868,84.27734 -16.02702,15.86825 -35.22833,35.69093 -42.66797,44.04883 -12.68696,14.25287 -17.0242,19.33162 -31.22265,36.55859 -6.1659,7.48109 -23.73837,30.13526 -26.94727,34.74024 -1.0875,1.56063 -4.71685,6.43789 -8.06445,10.83789 -5.12726,6.73913 -34.47262,50.2959 -39.54883,58.70117 -0.87458,1.44815 -4.62328,7.62846 -8.33203,13.73438 C 147.03539,504.54147 144,509.84764 144,510.22852 c 0,0.38087 -1.11218,2.28588 -2.47266,4.23242 -6.16072,8.81457 -50.861324,97.5409 -50.861324,100.95508 0,0.33766 -1.259078,3.4563 -2.798829,6.93164 -1.53975,3.47535 -3.277802,7.51966 -3.863281,8.98632 -0.58548,1.46667 -1.976763,4.76537 -3.089844,7.33204 -1.113082,2.56666 -3.629418,8.86666 -5.591796,14 -1.962378,5.13333 -4.053951,10.53333 -4.648438,12 -2.053092,5.06521 -6.488403,17.35232 -8.183594,22.66796 -0.935458,2.93334 -2.178089,5.90295 -2.761718,6.59961 -0.58363,0.69667 -1.0625,2.35365 -1.0625,3.6836 0,1.32995 -0.543319,3.46098 -1.208985,4.73437 -0.665666,1.27338 -2.222844,5.61511 -3.458984,9.64844 -6.197748,20.22228 -7.642172,24.98356 -8.699219,28.66602 C 42.723435,749.63797 41.095655,755.57706 40,760 c -0.635817,2.56667 -1.804951,7.06667 -2.597656,10 -0.792705,2.93333 -2.061741,8.03398 -2.820313,11.33398 -0.758571,3.3 -1.983122,8.3987 -2.720703,11.33204 -1.264521,5.02895 -1.812512,7.42388 -5.265625,23 -0.77223,3.48333 -1.971579,9.48398 -2.666016,13.33398 -3.385997,18.77218 -4.116276,22.91441 -5.347656,30.33398 -4.829976,29.10261 -7.664445,52.80583 -10.7597654,90 -2.1036124,25.27755 -2.1319519,124.11222 -0.042969,149.33202 3.3447844,40.3807 8.1589814,78.1592 13.5488284,106.334 6.12123,31.998 9.812359,48.9392 14.742187,67.666 1.544399,5.8666 3.320704,12.7673 3.947266,15.334 0.626562,2.5667 1.778456,6.916 2.560547,9.666 0.782092,2.75 1.971674,6.9507 2.644531,9.334 0.672857,2.3833 2.537903,8.5326 4.144531,13.666 1.606631,5.1333 3.225926,10.9919 3.597657,13.0176 0.37173,2.0256 1.206685,4.0111 1.855468,4.4121 C 55.469096,1338.4967 56,1340.2532 56,1342 c 0,1.7468 0.600631,3.5468 1.333984,4 0.733334,0.4532 1.332032,2.2532 1.332032,4 0,1.7468 0.600651,3.5468 1.333984,4 0.733333,0.4532 1.333984,1.9964 1.333984,3.4297 0,1.4334 0.551833,3.6485 1.226563,4.9219 0.674731,1.2734 2.532145,5.9144 4.128906,10.3144 1.596761,4.4 3.389451,9.2014 3.982422,10.668 0.592971,1.4667 3.63552,9.2653 6.761719,17.332 3.126199,8.0666 7.382979,18.4315 9.458984,23.0332 2.076004,4.6017 3.773438,8.6699 3.773438,9.0391 0,3.4604 39.661874,82.2365 47.443354,94.2324 1.77366,2.7343 3.22461,5.2582 3.22461,5.6074 0,0.9058 17.71768,30.1227 24.0293,39.625 2.91733,4.3921 5.30274,8.2123 5.30274,8.4903 0,0.2781 1.95065,3.3013 4.33398,6.7168 2.38333,3.4155 5.23398,7.5768 6.33398,9.248 2.16875,3.2948 11.19936,16.1793 21.10157,30.1074 3.42759,4.8211 9.53112,12.907 13.56445,17.9688 4.03333,5.0618 8.53333,10.7859 10,12.7207 18.17817,23.9805 43.99202,52.6697 77.93359,86.6113 32.46463,32.4646 45.45879,44.3374 75.81055,69.2676 13.23807,10.8735 39.41722,30.7458 53.57031,40.666 5.2312,3.6667 11.12462,7.9348 13.09766,9.4844 1.97304,1.5497 4.78724,3.1933 6.25391,3.6523 2.6177,0.8192 2.66171,0.3029 2.3164,-28.1504 -0.40993,-33.7778 -0.36136,-33.6523 -13.06445,-33.6523 -21.81753,0 -60.03003,-18.8754 -78.66797,-38.8594 -10.51844,-11.278 -19.92024,-25.7993 -25.27148,-39.0312 -2.99361,-7.4022 -4.52235,-14.0877 -8.58008,-37.5235 C 328.44195,1684.3956 328,1548.5151 328,1260.3477 c 0,-381.39603 -0.19977,-421.69005 -2.0957,-423.58598 -1.67316,-1.67316 -5.33424,-2.0957 -18.17774,-2.0957 -8.84587,0 -18.55384,0.69851 -21.57226,1.55078 -7.11621,2.00932 -17.31185,11.71434 -19.3086,18.3789 -1.07836,3.59922 -1.51172,39.03141 -1.51172,123.46875 0,115.56495 -0.0678,118.66435 -2.75781,128.51175 -5.79341,21.208 -21.32215,33.622 -43.20703,34.539 -8.52264,0.3572 -12.28232,-0.1446 -18.45898,-2.4629 -10.62442,-3.9875 -24.00824,-16.5453 -29.11524,-27.3183 l -3.79297,-8 0.01,-128.66798 c 0.006,-82.9829 0.50261,-131.71279 1.40039,-137.2461 3.5185,-21.6857 16.62805,-47.98489 31.77734,-63.75 11.60476,-12.0765 33.47655,-25.25495 50.81055,-30.61523 16.67668,-5.157 21.33004,-5.72071 47.18945,-5.72071 19.78244,0 26.1599,-0.41252 27.28125,-1.76367 0.98238,-1.18369 1.61697,-17.50964 1.93164,-49.66601 0.56914,-58.16231 1.99527,-75.3478 8.30078,-99.97657 7.36338,-28.76067 13.79856,-45.66934 26.28516,-69.07226 25.70959,-48.186 62.98723,-86.11976 110.3457,-112.28711 17.7144,-9.78788 20.43638,-11.12798 34.66602,-17.07422 27.99903,-11.70016 48.55952,-16.91319 88.66602,-22.48047 16.7312,-2.32251 835.28145,-2.24753 853.33395,0.0781 16.9101,2.17849 28.8862,3.95342 32,4.74218 1.4667,0.37153 7.166,1.67266 12.666,2.89258 22.3542,4.95824 39.1559,11.29287 66,24.88281 17.9504,9.08749 33.8727,19.18249 48,30.43165 3.6666,2.91966 9.6673,7.62328 13.334,10.45312 15.5393,11.99282 39.4197,42.17965 57.873,73.1582 15.0973,25.34456 29.9244,69.65444 33.5782,100.34766 0.8293,6.96667 2.0555,29.76602 2.7265,50.66602 0.671,20.9 1.6554,46.1 2.1875,56 l 0.9688,18 27.332,0.76562 c 28.597,0.80044 40.5076,2.34625 49.7832,6.45898 3.0526,1.35354 7.6501,3.2509 10.2168,4.2168 8.896,3.3478 28.709,16.49349 35.2871,23.41406 14.7858,15.55559 27.0343,37.38049 31.6973,56.47852 4.8992,20.06574 5.0156,23.53308 5.0156,147.60742 0,118.70161 -0.088,123.05961 -2.6445,131.25201 -3.329,10.6667 -8.4657,18.4046 -16.0762,24.2129 -11.4013,8.7016 -15.9096,10.2617 -29.6543,10.2617 -17.4323,0 -23.3855,-2.2847 -34.498,-13.2363 -14.7809,-14.567 -13.6825,-3.6716 -14.459,-143.43171 l -0.668,-120 -3.2031,-8 c -4.2934,-10.71845 -10.7858,-17.04347 -20.334,-19.8125 -9.808,-2.84438 -34.1287,-3.03418 -37.875,-0.29493 -2.5498,1.86445 -2.5981,8.21474 -3.3652,429.00004 -0.5247,287.778 -1.2344,429.7171 -2.1739,435.1074 -4.2045,24.1221 -16.6552,49.0979 -34.7363,69.6797 -5.0763,5.7785 -32.3748,22.7786 -43.2402,26.9277 -13.2039,5.0421 -19.6326,6.6456 -34.4043,8.5782 L 1590,1807.334 1589.1094,1834 c -0.4903,14.6667 -1.3121,29.3083 -1.8262,32.5371 -1.1549,7.2531 -1.3313,7.3049 16.1484,-4.6816 11.8016,-8.0928 17.6016,-12.3104 37.2364,-27.0723 10.3546,-7.7849 36.0589,-28.3742 40.666,-32.5742 2.5667,-2.3398 6.2626,-5.4892 8.2148,-6.9981 19.5934,-15.1439 91.0143,-86.5807 105.6387,-105.6621 1.4962,-1.9522 3.0795,-3.8481 3.5176,-4.2148 2.7474,-2.2996 23.4538,-28.0969 37.9941,-47.334 15.3895,-20.3604 53.9688,-76.6104 53.9688,-78.6895 0,-0.4562 1.8,-3.4469 4,-6.6445 2.2,-3.1976 4,-6.1969 4,-6.666 0,-0.4691 1.8,-3.4684 4,-6.666 2.2,-3.1976 4,-6.1692 4,-6.6016 0,-0.4325 1.5353,-3.2182 3.4121,-6.1914 10.9906,-17.4102 43.2623,-83.1674 53.9238,-109.875 0.5854,-1.4667 2.3236,-5.5091 3.8633,-8.9844 1.5398,-3.4753 2.8008,-6.9342 2.8008,-7.6855 0,-0.7512 0.53,-2.4082 1.1777,-3.6816 1.1343,-2.2298 3.3517,-7.3946 5.5723,-12.9805 3.5095,-8.8284 18.203,-52.7391 21.1933,-63.334 0.9313,-3.3 2.1413,-7.1993 2.6895,-8.666 2.4809,-6.6384 4.0332,-12.4163 4.0332,-15.0156 0,-1.5547 -0.7889,2.0109 -0.1366,1.6077 0.6524,-0.4031 2.8317,-7.8562 3.2264,-10.2464 0.6753,-4.089 2.1013,-10.193 4.9102,-21.0137 1.9965,-7.6909 4.0759,-16.3403 5.289,-22 11.3612,-53.0061 17.2595,-93.2679 21.586,-147.332 2.0223,-25.275 2.0371,-120.44272 0.021,-146.00002 -3.1406,-39.82238 -8.0799,-79.14901 -13.3965,-106.66796 -0.7084,-3.66667 -1.912,-9.96667 -2.6738,-14 -0.7619,-4.03334 -1.9556,-10.03204 -2.6543,-13.33204 -0.6987,-3.3 -1.8937,-9.0013 -2.6543,-12.66796 -1.3591,-6.55142 -3.0624,-13.77246 -5.5801,-23.66602 -0.6998,-2.75 -1.8443,-7.25 -2.5449,-10 -0.7005,-2.75 -1.6469,-6.8 -2.1016,-9 -0.4547,-2.2 -1.2965,-5.19935 -1.873,-6.66602 -2.1879,-5.56647 -4.086,-12.2751 -4.086,-14.44726 0,-1.24121 -0.5373,-3.29889 -1.1953,-4.57227 -0.658,-1.27338 -2.5543,-6.81445 -4.2129,-12.31445 -6.8897,-22.84642 -16.2504,-50.10399 -17.707,-51.56055 -0.4866,-0.48663 -0.8848,-1.87142 -0.8848,-3.07812 0,-1.2067 -1.1993,-4.67724 -2.666,-7.71289 -1.4667,-3.03565 -2.666,-6.15684 -2.666,-6.93555 0,-0.77871 -0.53,-2.45709 -1.1777,-3.73047 -0.6479,-1.27338 -1.7894,-3.8151 -2.5352,-5.64844 -0.7458,-1.83333 -2.6145,-6.177 -4.1543,-9.65234 -1.5397,-3.47534 -2.8008,-6.61051 -2.8008,-6.9668 0,-0.3563 -1.6929,-4.41393 -3.7637,-9.01562 -2.0708,-4.6017 -4.5956,-10.46654 -5.6093,-13.0332 -2.7478,-6.95712 -33.0079,-67.40855 -37.6563,-75.22657 -2.2149,-3.72512 -5.8308,-10.07213 -8.0351,-14.10547 -2.2044,-4.03333 -5.116,-8.9265 -6.4707,-10.87304 -1.3548,-1.94654 -2.4649,-3.93778 -2.4649,-4.42578 0,-0.488 -1.8,-3.50359 -4,-6.70118 -2.2,-3.19759 -4,-6.16904 -4,-6.60351 0,-0.66628 -24.3814,-37.62238 -34.789,-52.73047 -4.2042,-6.10294 -29.5165,-39.82175 -32.7227,-43.58984 -1.3677,-1.60736 -5.1883,-6.3494 -8.4883,-10.53907 -3.3,-4.18968 -8.4286,-10.37451 -11.3965,-13.74414 -2.968,-3.36963 -7.1036,-8.2263 -9.1914,-10.79297 -19.3086,-23.73672 -79.6754,-84.10355 -103.4121,-103.41211 -2.5667,-2.08784 -7.4234,-6.22349 -10.793,-9.1914 -3.3696,-2.96792 -9.5716,-8.09649 -13.7832,-11.39649 -4.2117,-3.3 -8.3899,-6.67898 -9.2851,-7.50781 -3.6426,-3.3727 -40.9347,-31.06452 -51.8574,-38.50781 -20.1972,-13.76333 -42.8639,-28.67776 -44.9473,-29.57422 -1.1,-0.47331 -4.5087,-2.55823 -7.5742,-4.63477 -3.0654,-2.07654 -5.9567,-3.77539 -6.4258,-3.77539 -0.4691,0 -3.4684,-1.8 -6.666,-4 -3.1976,-2.2 -6.1087,-4 -6.4688,-4 -0.36,0 -5.6519,-2.88472 -11.7597,-6.41015 -11.8267,-6.82633 -71.9452,-37.139759 -79.7715,-40.222658 -2.5666,-1.011049 -8.4315,-3.532742 -13.0332,-5.603516 -4.6017,-2.070775 -8.6368,-3.763672 -8.9668,-3.763672 -0.3299,0 -4.5306,-1.8 -9.334,-4 -4.8034,-2.2 -9.3259,-4 -10.0508,-4 -0.7249,0 -2.3613,-0.555383 -3.6347,-1.234375 -2.9826,-1.590387 -19.2342,-7.791928 -26.9805,-10.294922 -3.3,-1.066304 -7.2014,-2.475788 -8.668,-3.132812 -3.5749,-1.601417 -24.2768,-8.385015 -36.666,-12.013672 -5.5,-1.610888 -11.1993,-3.412931 -12.666,-4.003906 C 1309.8674,46.063321 1305.6667,44.869336 1302,44 c -3.6667,-0.869336 -7.8674,-2.07936 -9.334,-2.689453 -1.4667,-0.610094 -4.466,-1.48082 -6.666,-1.935547 -3.7567,-0.776494 -6.9433,-1.548359 -20,-4.841797 -2.9333,-0.739907 -7.7326,-1.880067 -10.666,-2.533203 -2.9333,-0.653136 -8.034,-1.823732 -11.334,-2.601563 -30.7797,-7.254965 -78.2301,-14.991068 -114.666,-18.695312 -35.9055,-3.6503309 -56.7431,-4.5344299 -106,-4.4980469 z"
         style="display:inline;fill:#ef5053;fill-opacity:1"
         id="path22" /><path
         d="m 1199.334,755.62305 348,1.04297 7.3965,2.83593 c 4.0686,1.55957 9.9429,4.13513 13.0547,5.72266 8.1915,4.17899 20.5529,17.14533 25.0234,26.25 l 3.8574,7.85937 0.3906,161.33204 c 0.4107,169.57998 0.5428,165.41098 -5.5586,177.70308 -5.9441,11.9754 -21.7419,23.3682 -40.2343,29.0176 l -10.7344,3.2793 -517.9316,-0.1055 c -284.86224,-0.058 -518.83168,-0.3926 -519.93168,-0.7441 -1.1,-0.3515 -5.89935,-1.8785 -10.66602,-3.3945 -11.18731,-3.558 -25.18084,-11.7094 -30.5,-17.7676 -2.3031,-2.6231 -5.98125,-8.3265 -8.17578,-12.6738 l -3.99024,-7.9043 V 961.63281 795.18945 l 3.42188,-6.86523 c 5.99749,-12.03538 20.98775,-24.09593 36.41992,-29.30078 14.63537,-4.93611 84.98581,-5.27379 710.15822,-3.40039 z"
         style="display:inline;fill:#ef5053;fill-opacity:1"
         id="path21" /></g></g></svg>
